<?xml version="1.0" encoding="UTF-8" standalone="no"?>
<!-- Created with Inkscape (http://www.inkscape.org/) -->

<svg
   version="1.1"
   id="svg1"
   width="918.58636"
   height="350.8692"
   viewBox="0 0 918.58636 350.8692"
   xmlns="http://www.w3.org/2000/svg"
   xmlns:svg="http://www.w3.org/2000/svg">
  <defs
     id="defs1" />
  <g
     id="layer-MC0"
     transform="translate(29.530884,6.735931)">
    <path
       id="path1"
       d="m 40.968447,156.7994 h -1.584 v -12.27466 h 1.584 z"
       style="fill:#231f20;fill-opacity:1;fill-rule:nonzero;stroke:none;stroke-width:1.33333" />
    <path
       id="path2"
       d="m 49.964715,156.47087 c -0.418666,0.21866 -1.348,0.50933 -2.532,0.50933 -2.658666,0 -4.387999,-1.80133 -4.387999,-4.49867 0,-2.712 1.856,-4.68 4.733333,-4.68 0.948,0 1.785333,0.23734 2.222666,0.45467 l -0.364,1.23867 c -0.382666,-0.21734 -0.984,-0.41867 -1.858666,-0.41867 -2.02,0 -3.113333,1.49333 -3.113333,3.33333 0,2.04 1.310666,3.29734 3.059999,3.29734 0.910667,0 1.510667,-0.23734 1.966667,-0.43734 z"
       style="fill:#231f20;fill-opacity:1;fill-rule:nonzero;stroke:none;stroke-width:1.33333" />
    <path
       id="path3"
       d="m 52.822448,152.40901 c 0,1.93066 1.110667,3.388 2.677334,3.388 1.529333,0 2.676,-1.43867 2.676,-3.424 0,-1.49334 -0.746667,-3.388 -2.64,-3.388 -1.894667,0 -2.713334,1.748 -2.713334,3.424 m 6.993334,-0.0907 c 0,3.26 -2.258667,4.68 -4.389334,4.68 -2.385333,0 -4.225333,-1.748 -4.225333,-4.53467 0,-2.94933 1.930667,-4.68 4.372,-4.68 2.530667,0 4.242667,1.84 4.242667,4.53467"
       style="fill:#231f20;fill-opacity:1;fill-rule:nonzero;stroke:none;stroke-width:1.33333" />
    <path
       id="path4"
       d="m 61.834315,150.37021 c 0,-0.91067 -0.01733,-1.65734 -0.07333,-2.38667 h 1.421333 l 0.09067,1.45867 h 0.036 c 0.437333,-0.83867 1.457333,-1.65867 2.914667,-1.65867 1.22,0 3.114666,0.728 3.114666,3.752 v 5.264 h -1.602666 v -5.08133 c 0,-1.42134 -0.528,-2.604 -2.04,-2.604 -1.057334,0 -1.876,0.74666 -2.149334,1.63733 -0.07333,0.20133 -0.109333,0.47467 -0.109333,0.74667 v 5.30133 h -1.602667 z"
       style="fill:#231f20;fill-opacity:1;fill-rule:nonzero;stroke:none;stroke-width:1.33333" />
    <path
       id="path5"
       d="M 2.3728488,172.89434 H -2.399151 v 4.42533 H 2.9195155 V 178.649 H -3.983151 V 166.37434 H 2.6461821 V 167.705 H -2.399151 v 3.87734 h 4.7719998 z"
       style="fill:#231f20;fill-opacity:1;fill-rule:nonzero;stroke:none;stroke-width:1.33333" />
    <path
       id="path6"
       d="m 5.6661818,169.83407 1.256,1.89466 c 0.328,0.492 0.6026666,0.94667 0.892,1.43867 h 0.056 c 0.2906666,-0.528 0.5826666,-0.984 0.8746666,-1.456 l 1.238667,-1.87733 h 1.7293326 l -3.0053326,4.26133 3.0959996,4.55333 H 9.9835154 l -1.293334,-1.98533 c -0.346666,-0.50933 -0.638666,-1.00133 -0.9479996,-1.52933 h -0.036 c -0.292,0.528 -0.6013334,1.00266 -0.9293334,1.52933 l -1.2746666,1.98533 H 3.7355152 l 3.1333332,-4.49733 -2.9879999,-4.31733 z"
       style="fill:#231f20;fill-opacity:1;fill-rule:nonzero;stroke:none;stroke-width:1.33333" />
    <path
       id="path7"
       d="m 17.848848,174.15074 c -1.748,-0.036 -3.733333,0.272 -3.733333,1.98533 0,1.03733 0.690667,1.52933 1.510667,1.52933 1.148,0 1.876,-0.72933 2.130666,-1.476 0.056,-0.16133 0.092,-0.34533 0.092,-0.50933 z m 0.236,4.49866 -0.128,-1.11066 h -0.05333 c -0.492,0.692 -1.44,1.31066 -2.696,1.31066 -1.785333,0 -2.696,-1.25733 -2.696,-2.532 0,-2.13066 1.894667,-3.29733 5.301333,-3.27733 v -0.184 c 0,-0.72667 -0.201333,-2.03867 -2.005333,-2.03867 -0.818667,0 -1.674666,0.25467 -2.294666,0.656 l -0.362667,-1.056 c 0.728,-0.47466 1.784,-0.78266 2.894666,-0.78266 2.696,0 3.352,1.83866 3.352,3.60533 v 3.29733 c 0,0.764 0.036,1.51067 0.145334,2.112 z"
       style="fill:#231f20;fill-opacity:1;fill-rule:nonzero;stroke:none;stroke-width:1.33333" />
    <path
       id="path8"
       d="m 21.979915,172.22061 c 0,-0.91067 -0.01733,-1.65734 -0.07333,-2.38667 h 1.402667 l 0.07333,1.42 h 0.05467 c 0.492,-0.83733 1.310666,-1.62 2.768,-1.62 1.201333,0 2.112,0.728 2.494666,1.76667 h 0.036 c 0.274667,-0.492 0.62,-0.87467 0.984,-1.148 0.529334,-0.40134 1.112,-0.61867 1.949333,-0.61867 1.165334,0 2.896,0.76533 2.896,3.82533 v 5.19067 h -1.566666 v -4.99067 c 0,-1.69333 -0.618667,-2.71466 -1.912,-2.71466 -0.910667,0 -1.621333,0.676 -1.894667,1.45733 -0.07333,0.22 -0.128,0.51067 -0.128,0.80267 v 5.44533 h -1.566666 v -5.28133 c 0,-1.40267 -0.617334,-2.424 -1.838667,-2.424 -1.001333,0 -1.729333,0.80133 -1.984,1.604 -0.092,0.23733 -0.128,0.50933 -0.128,0.78266 v 5.31867 h -1.566667 z"
       style="fill:#231f20;fill-opacity:1;fill-rule:nonzero;stroke:none;stroke-width:1.33333" />
    <path
       id="path9"
       d="m 38.748981,175.06154 c 0,0.23733 0.036,0.45466 0.07333,0.656 0.290666,1.11066 1.256,1.87466 2.404,1.87466 1.693333,0 2.677333,-1.38266 2.677333,-3.40533 0,-1.76667 -0.929333,-3.27867 -2.622667,-3.27867 -1.093333,0 -2.113333,0.78267 -2.422666,1.98667 -0.05467,0.19867 -0.109334,0.436 -0.109334,0.65467 z m -1.584,-2.34934 c 0,-1.12933 -0.03733,-2.04 -0.07333,-2.87866 h 1.438667 l 0.072,1.512 h 0.03733 c 0.656,-1.07467 1.693333,-1.71067 3.133333,-1.71067 2.130667,0 3.732,1.80133 3.732,4.48 0,3.16933 -1.929333,4.73333 -4.005333,4.73333 -1.166667,0 -2.185333,-0.50933 -2.714667,-1.38266 h -0.036 v 4.78933 h -1.584 z"
       style="fill:#231f20;fill-opacity:1;fill-rule:nonzero;stroke:none;stroke-width:1.33333" />
    <path
       id="path10"
       d="m 47.524446,165.7194 h 1.602667 v 12.93067 h -1.602667 z"
       style="fill:#231f20;fill-opacity:1;fill-rule:nonzero;stroke:none;stroke-width:1.33333" />
    <path
       id="path11"
       d="m 57.412848,173.38621 c 0.01867,-1.02 -0.418666,-2.60534 -2.221333,-2.60534 -1.621333,0 -2.332,1.49334 -2.458666,2.60534 z m -4.698666,1.148 c 0.036,2.16666 1.421333,3.05866 3.022666,3.05866 1.148,0 1.84,-0.2 2.441334,-0.45466 l 0.273333,1.148 c -0.564,0.25466 -1.530667,0.54533 -2.932,0.54533 -2.713333,0 -4.334666,-1.784 -4.334666,-4.444 0,-2.65867 1.565333,-4.75333 4.133333,-4.75333 2.878666,0 3.642666,2.53066 3.642666,4.15333 0,0.328 -0.036,0.58267 -0.05467,0.74667 z"
       style="fill:#231f20;fill-opacity:1;fill-rule:nonzero;stroke:none;stroke-width:1.33333" />
    <path
       id="path12"
       d="m 60.724981,177.00954 c 0.473334,0.31066 1.310667,0.63866 2.112,0.63866 1.165334,0 1.713334,-0.584 1.713334,-1.312 0,-0.76533 -0.456,-1.184 -1.64,-1.62 -1.585334,-0.56533 -2.332,-1.44 -2.332,-2.496 0,-1.42 1.148,-2.58533 3.041333,-2.58533 0.893333,0 1.676,0.25467 2.168,0.54533 l -0.4,1.16534 c -0.346667,-0.21734 -0.984,-0.50934 -1.804,-0.50934 -0.946667,0 -1.474667,0.54667 -1.474667,1.20267 0,0.72667 0.528,1.05467 1.674667,1.49333 1.530667,0.58267 2.314667,1.348 2.314667,2.65734 0,1.54933 -1.202667,2.64133 -3.297334,2.64133 -0.965333,0 -1.857333,-0.23733 -2.477333,-0.6 z"
       style="fill:#231f20;fill-opacity:1;fill-rule:nonzero;stroke:none;stroke-width:1.33333" />
    <path
       id="path13"
       d="m 220.82045,115.94847 c -2.492,-2.37734 -5.78,-3.61067 -9.21467,-3.43467 -6.30266,0.29467 -11.512,5.46 -11.86,11.76 -0.224,4.05733 1.46267,7.85066 4.62934,10.408 0.80266,0.648 1.264,1.608 1.264,2.636 v 2.47466 c 0,0.86934 0.504,1.60134 1.22,1.992 v 2.64 c 0,2.948 2.4,5.34667 5.34666,5.34667 2.95067,0 5.34934,-2.39867 5.34934,-5.34667 v -2.64 c 0.71466,-0.39066 1.21866,-1.12266 1.21866,-1.992 v -2.47466 c 0,-1.032 0.448,-1.98267 1.232,-2.60934 2.97334,-2.38533 4.68133,-5.92933 4.68133,-9.72933 0,-3.44533 -1.37466,-6.652 -3.86666,-9.03066 m -4.332,26.14133 v 2.33466 c 0,2.36267 -1.91867,4.28267 -4.28267,4.28267 -2.11333,0 -3.864,-1.54133 -4.20933,-3.55867 h 4.20933 c 0.296,0 0.532,-0.23866 0.532,-0.532 0,-0.29466 -0.236,-0.532 -0.532,-0.532 h -4.28266 v -1.99466 h 0.016 8.536 z m 2.85067,-8.21334 c -1.03734,0.832 -1.63067,2.084 -1.63067,3.44134 v 2.47466 c 0,0.68134 -0.55333,1.23334 -1.23333,1.23334 h -8.536 c -0.68134,0 -1.236,-0.552 -1.236,-1.23334 v -2.47466 c 0,-1.35067 -0.604,-2.61334 -1.65867,-3.46534 -2.89733,-2.336 -4.44,-5.808 -4.236,-9.51999 0.32,-5.76267 5.084,-10.484 10.848,-10.75734 0.18533,-0.008 0.372,-0.012 0.556,-0.012 2.952,0 5.72933,1.11067 7.87333,3.156 2.28,2.17467 3.536,5.108 3.536,8.26 0,3.47333 -1.56133,6.71733 -4.28266,8.89733"
       style="fill:#231f20;fill-opacity:1;fill-rule:nonzero;stroke:none;stroke-width:1.33333" />
    <path
       id="path14"
       d="m 218.78325,123.02301 c -0.712,0 -1.29333,0.58 -1.29333,1.29333 0,0.712 0.58133,1.29067 1.29333,1.29067 0.712,0 1.29333,-0.57867 1.29333,-1.29067 0,-0.71333 -0.58133,-1.29333 -1.29333,-1.29333"
       style="fill:#231f20;fill-opacity:1;fill-rule:nonzero;stroke:none;stroke-width:1.33333" />
    <path
       id="path15"
       d="m 220.82045,50.873267 c -2.492,-2.377333 -5.764,-3.621333 -9.21333,-3.434666 -6.304,0.294666 -11.51067,5.46 -11.86134,11.759999 -0.224,4.057334 1.46267,7.850667 4.632,10.406667 0.80267,0.649333 1.264,1.609333 1.264,2.637333 v 2.472 c 0,0.870667 0.504,1.602667 1.21734,1.993333 v 2.64 c 0,2.949333 2.4,5.348 5.34933,5.348 2.948,0 5.34667,-2.398667 5.34667,-5.348 v -2.638666 c 0.71466,-0.390667 1.21866,-1.122667 1.21866,-1.994667 v -2.472 c 0,-1.032 0.448,-1.984 1.232,-2.612 2.97334,-2.382667 4.68133,-5.929333 4.68133,-9.726666 0,-3.445334 -1.37466,-6.652 -3.86666,-9.030667 m -4.332,26.141333 v 2.333333 c 0,2.36 -1.91867,4.282667 -4.28,4.282667 -2.11467,0 -3.864,-1.541334 -4.212,-3.558667 h 4.212 c 0.29333,0 0.532,-0.238667 0.532,-0.532 0,-0.293333 -0.23867,-0.532 -0.532,-0.532 h -4.28533 V 77.0146 h 0.016 8.536 z m 2.85067,-8.213333 c -1.03467,0.829333 -1.63067,2.084 -1.63067,3.441333 v 2.472 c 0,0.681333 -0.55333,1.236 -1.23333,1.236 h -8.536 c -0.67867,0 -1.23334,-0.554667 -1.23334,-1.236 v -2.472 c 0,-1.350667 -0.60666,-2.613333 -1.66133,-3.465333 -2.89733,-2.338667 -4.44,-5.808 -4.23333,-9.522667 0.31733,-5.76 5.08133,-10.482666 10.84533,-10.751999 0.18533,-0.01067 0.372,-0.01467 0.556,-0.01467 2.952,0 5.72933,1.110667 7.87333,3.156 2.28,2.174666 3.536,5.108 3.536,8.26 0,3.473333 -1.56133,6.717333 -4.28266,8.897333"
       style="fill:#231f20;fill-opacity:1;fill-rule:nonzero;stroke:none;stroke-width:1.33333" />
    <path
       id="path16"
       d="m 213.84298,57.638334 c -0.712,0 -1.29333,0.58 -1.29333,1.293334 0,0.712 0.58133,1.290666 1.29333,1.290666 0.712,0 1.29333,-0.578666 1.29333,-1.290666 0,-0.713334 -0.58133,-1.293334 -1.29333,-1.293334"
       style="fill:#231f20;fill-opacity:1;fill-rule:nonzero;stroke:none;stroke-width:1.33333" />
    <path
       id="path17"
       d="m 218.02458,55.204601 c -0.712,0 -1.29333,0.58 -1.29333,1.293334 0,0.712 0.58133,1.290666 1.29333,1.290666 0.712,0 1.29333,-0.578666 1.29333,-1.290666 0,-0.713334 -0.58133,-1.293334 -1.29333,-1.293334"
       style="fill:#231f20;fill-opacity:1;fill-rule:nonzero;stroke:none;stroke-width:1.33333" />
    <path
       id="path18"
       d="m 218.02458,60.616201 c -0.712,0 -1.29333,0.58 -1.29333,1.293334 0,0.712 0.58133,1.290666 1.29333,1.290666 0.712,0 1.29333,-0.578666 1.29333,-1.290666 0,-0.713334 -0.58133,-1.293334 -1.29333,-1.293334"
       style="fill:#231f20;fill-opacity:1;fill-rule:nonzero;stroke:none;stroke-width:1.33333" />
    <path
       id="path19"
       d="m 135.00098,51.852334 c -2.49067,-2.377333 -5.764,-3.622666 -9.21333,-3.434666 -6.30134,0.294666 -11.51067,5.46 -11.85867,11.759999 -0.224,4.057334 1.46267,7.850667 4.62933,10.406667 0.80267,0.646666 1.264,1.608 1.264,2.636 v 2.473333 c 0,0.870667 0.504,1.602667 1.21734,1.993333 v 2.64 c 0,2.946667 2.4,5.346667 5.34933,5.346667 2.948,0 5.34667,-2.4 5.34667,-5.346667 v -2.64 c 0.71466,-0.390666 1.21866,-1.122666 1.21866,-1.993333 l 0.001,-2.473333 c 0,-1.032 0.44933,-1.982667 1.23066,-2.610667 2.97467,-2.382667 4.68133,-5.929333 4.68133,-9.728 0,-3.444 -1.37466,-6.650666 -3.86666,-9.029333 m -4.32933,26.141333 V 80.327 c 0,2.36 -1.92134,4.282667 -4.28267,4.282667 -2.11467,0 -3.864,-1.544 -4.212,-3.561334 h 4.212 c 0.29333,0 0.532,-0.236 0.532,-0.531999 0,-0.293334 -0.23867,-0.532 -0.532,-0.532 h -4.28533 v -1.990667 h 0.016 8.536 z m 2.848,-8.214667 c -1.036,0.830667 -1.628,2.082667 -1.628,3.441334 l -0.003,2.473333 c 0,0.682667 -0.55333,1.236 -1.23333,1.236 h -8.536 c -0.67867,0 -1.23334,-0.553333 -1.23334,-1.236 v -2.473333 c 0,-1.352 -0.60533,-2.614667 -1.65866,-3.464 -2.89734,-2.338667 -4.44134,-5.808 -4.236,-9.522667 0.31866,-5.76 5.08266,-10.482666 10.84533,-10.754666 0.18533,-0.008 0.372,-0.012 0.556,-0.012 2.952,0 5.72933,1.109333 7.87333,3.156 2.28,2.174666 3.536,5.108 3.536,8.258666 0,3.474667 -1.55866,6.718667 -4.28266,8.897333"
       style="fill:#231f20;fill-opacity:1;fill-rule:nonzero;stroke:none;stroke-width:1.33333" />
    <path
       id="path20"
       d="m 122.88898,118.47114 c -3.58933,1.68133 -4.356,4.63466 -4.38533,4.75866 -0.072,0.28534 0.1,0.572 0.38533,0.64267 0.0427,0.012 0.088,0.016 0.12933,0.016 0.23867,0 0.45334,-0.16133 0.516,-0.4 0.0267,-0.10533 0.696,-2.596 3.80534,-4.052 0.26533,-0.12533 0.38133,-0.444 0.25733,-0.708 -0.12533,-0.26933 -0.44267,-0.38267 -0.708,-0.25733"
       style="fill:#231f20;fill-opacity:1;fill-rule:nonzero;stroke:none;stroke-width:1.33333" />
    <path
       id="path21"
       d="m 135.00298,116.92767 c -2.492,-2.37734 -5.772,-3.61334 -9.21467,-3.43467 -6.3,0.29467 -11.50933,5.46 -11.86,11.76 -0.224,4.06 1.46534,7.85333 4.62934,10.40666 0.80533,0.64934 1.264,1.612 1.264,2.63734 v 2.47466 c 0,0.86934 0.50666,1.60134 1.22,1.992 v 2.64 c 0,2.948 2.4,5.34667 5.34666,5.34667 2.95067,0 5.348,-2.39867 5.348,-5.34667 v -2.64 c 0.716,-0.39066 1.22,-1.12266 1.22,-1.992 V 138.297 c 0,-1.032 0.448,-1.98267 1.232,-2.60934 2.97467,-2.384 4.68133,-5.92933 4.68133,-9.72933 0,-3.44533 -1.37466,-6.652 -3.86666,-9.03066 m -4.332,26.14399 v 2.332 c 0,2.36134 -1.91867,4.28267 -4.28267,4.28267 -2.11333,0 -3.864,-1.54267 -4.20933,-3.55867 h 4.20933 c 0.296,0 0.532,-0.23866 0.532,-0.532 0,-0.29466 -0.236,-0.53333 -0.532,-0.53333 h -4.28266 v -1.99067 h 0.016 8.536 z m 2.85067,-8.216 c -1.03467,0.832 -1.63067,2.08534 -1.63067,3.44134 v 2.47466 c 0,0.68134 -0.55333,1.236 -1.23333,1.236 h -8.536 c -0.67867,0 -1.23334,-0.55466 -1.23334,-1.236 V 138.297 c 0,-1.34934 -0.60533,-2.61334 -1.66266,-3.46534 -2.896,-2.336 -4.43867,-5.80666 -4.23467,-9.51999 0.32,-5.76267 5.084,-10.484 10.848,-10.75467 0.18533,-0.0107 0.36933,-0.0147 0.556,-0.0147 2.952,0 5.72933,1.10934 7.87333,3.156 2.28,2.17467 3.536,5.108 3.536,8.26 0,3.476 -1.55866,6.71867 -4.28266,8.89733"
       style="fill:#231f20;fill-opacity:1;fill-rule:nonzero;stroke:none;stroke-width:1.33333" />
    <path
       id="path22"
       d="m 474.89445,122.63061 h -3.688 v -8.08267 c 0,-0.29333 -0.23867,-0.532 -0.532,-0.532 -0.296,0 -0.532,0.23867 -0.532,0.532 v 8.08267 h -3.69067 c -7.948,0 -14.416,6.468 -14.416,14.41599 v 0.80934 c 0,0.29333 0.23867,0.532 0.532,0.532 h 12.52934 c 0.61333,2.584 2.89333,4.412 5.57866,4.412 2.68667,0 4.96534,-1.828 5.58,-4.412 h 12.52267 c 0.296,0 0.532,-0.23867 0.532,-0.532 v -0.81067 c 0,-7.94933 -6.468,-14.41466 -14.416,-14.41466 m 13.352,14.69333 h -12.428 c -0.26267,0 -0.48533,0.192 -0.52533,0.44933 -0.364,2.296 -2.304,3.96267 -4.61734,3.96267 -2.312,0 -4.25333,-1.66667 -4.616,-3.96267 -0.0427,-0.25733 -0.26533,-0.44933 -0.52666,-0.44933 h -12.43334 v -0.27734 c 0,-7.36133 5.99067,-13.35199 13.352,-13.35199 h 4.08667 c 0.0493,0.0147 0.084,0.0573 0.136,0.0573 0.052,0 0.0867,-0.0427 0.136,-0.0573 h 4.084 c 7.36133,0 13.352,5.988 13.352,13.35066 z"
       style="fill:#231f20;fill-opacity:1;fill-rule:nonzero;stroke:none;stroke-width:1.33333" />
    <path
       id="path23"
       d="m 474.89445,57.553267 h -3.688 v -8.082666 c 0,-0.293334 -0.23867,-0.532 -0.532,-0.532 -0.296,0 -0.532,0.238666 -0.532,0.532 v 8.082666 h -3.69067 c -7.948,0 -14.416,6.468 -14.416,14.416 V 72.7786 c 0,0.293334 0.23867,0.532 0.532,0.532 h 12.52934 c 0.61333,2.584 2.89066,4.412 5.57866,4.412 2.68667,0 4.96534,-1.828 5.58,-4.412 h 12.52267 c 0.296,0 0.532,-0.238666 0.532,-0.532 v -0.810666 c 0,-7.949334 -6.468,-14.414667 -14.416,-14.414667 m 13.352,14.693333 h -12.428 c -0.26267,0 -0.48533,0.192 -0.52533,0.449334 -0.364,2.295999 -2.304,3.962666 -4.61734,3.962666 -2.31333,0 -4.256,-1.666667 -4.616,-3.962666 -0.04,-0.257334 -0.26533,-0.449334 -0.52666,-0.449334 h -12.43334 v -0.277333 c 0,-7.361333 5.99067,-13.352 13.352,-13.352 h 4.08667 c 0.0493,0.01467 0.084,0.05733 0.136,0.05733 0.052,0 0.0867,-0.04267 0.136,-0.05733 h 4.084 c 7.36133,0 13.352,5.988 13.352,13.350667 z"
       style="fill:#231f20;fill-opacity:1;fill-rule:nonzero;stroke:none;stroke-width:1.33333" />
    <path
       id="path24"
       d="m 469.95632,74.981801 c -0.012,-0.0027 -1.272,-0.301333 -1.81733,-1.716 -0.10267,-0.274666 -0.41467,-0.414666 -0.68534,-0.305333 -0.27466,0.105333 -0.412,0.414667 -0.308,0.688 0.74534,1.94 2.50267,2.357333 2.57867,2.373333 0.0373,0.008 0.076,0.012 0.11733,0.012 0.24267,0 0.46267,-0.168 0.51734,-0.414666 0.064,-0.288 -0.116,-0.572 -0.40267,-0.637334"
       style="fill:#231f20;fill-opacity:1;fill-rule:nonzero;stroke:none;stroke-width:1.33333" />
    <path
       id="path25"
       d="m 558.67085,122.50914 h -3.688 v -8.08267 c 0,-0.29333 -0.23867,-0.532 -0.532,-0.532 -0.29333,0 -0.532,0.23867 -0.532,0.532 v 8.08267 h -3.69067 c -7.948,0 -14.416,6.468 -14.416,14.41599 v 0.80934 c 0,0.29333 0.23867,0.532 0.532,0.532 h 12.52667 c 0.616,2.584 2.896,4.412 5.58133,4.412 2.68667,0 4.96534,-1.828 5.57867,-4.412 h 12.524 c 0.29333,0 0.532,-0.23867 0.532,-0.532 v -0.81067 c 0,-7.94933 -6.468,-14.41466 -14.416,-14.41466 m 13.352,14.69333 h -12.42933 c -0.26134,0 -0.484,0.19066 -0.52667,0.44933 -0.36133,2.296 -2.30133,3.96267 -4.61467,3.96267 -2.312,0 -4.25333,-1.66667 -4.61866,-3.96267 -0.04,-0.25867 -0.26267,-0.44933 -0.52534,-0.44933 h -12.432 v -0.27734 c 0,-7.36133 5.99067,-13.35199 13.352,-13.35199 h 4.08667 c 0.0493,0.0147 0.084,0.0573 0.136,0.0573 0.052,0 0.0867,-0.0427 0.13333,-0.0573 h 4.08667 c 7.36133,0 13.352,5.988 13.352,13.35066 z"
       style="fill:#231f20;fill-opacity:1;fill-rule:nonzero;stroke:none;stroke-width:1.33333" />
    <path
       id="path26"
       d="m 554.33952,137.50594 c -0.70667,0 -1.276,0.572 -1.276,1.276 0,0.704 0.56933,1.27733 1.276,1.27733 0.704,0 1.276,-0.57333 1.276,-1.27733 0,-0.704 -0.572,-1.276 -1.276,-1.276"
       style="fill:#231f20;fill-opacity:1;fill-rule:nonzero;stroke:none;stroke-width:1.33333" />
    <path
       id="path27"
       d="m 558.67085,55.718334 h -3.688 v -8.082666 c 0,-0.293334 -0.23867,-0.532 -0.532,-0.532 -0.29333,0 -0.532,0.238666 -0.532,0.532 v 8.085333 h -3.69067 c -7.948,0 -14.416,6.465333 -14.416,14.416 v 0.809333 c 0,0.141333 0.0573,0.276 0.156,0.376 0.10134,0.101333 0.23734,0.156 0.376,0.156 l 12.52934,-0.0027 c 0.61333,2.584 2.89333,4.412 5.57866,4.412 2.68934,0 4.96667,-1.828 5.58,-4.412 h 12.52267 c 0.29333,0 0.53466,-0.238666 0.53466,-0.532 v -0.810666 c 0,-7.949334 -6.47066,-14.414667 -14.41866,-14.414667 m 13.352,14.693333 h -12.428 c -0.26,0 -0.48267,0.192 -0.52533,0.449334 -0.36,2.295999 -2.30267,3.962666 -4.61734,3.962666 -2.312,0 -4.25333,-1.666667 -4.616,-3.962666 -0.04,-0.257334 -0.26266,-0.449334 -0.52666,-0.449334 l -12.43067,0.0027 v -0.277333 c 0,-7.364 5.988,-13.352 13.34933,-13.352 h 0.33467 3.75467 c 0.048,0.01333 0.0813,0.05467 0.13333,0.05467 0.0507,0 0.0853,-0.04133 0.132,-0.05467 l 4.088,-0.0027 c 7.36133,0 13.352,5.988 13.352,13.350667 z"
       style="fill:#231f20;fill-opacity:1;fill-rule:nonzero;stroke:none;stroke-width:1.33333" />
    <path
       id="path28"
       d="m 547.90618,73.527267 c -0.70667,0 -1.276,0.570667 -1.276,1.276 0,0.704 0.56933,1.277333 1.276,1.277333 0.70667,0 1.276,-0.573333 1.276,-1.277333 0,-0.705333 -0.56933,-1.276 -1.276,-1.276"
       style="fill:#231f20;fill-opacity:1;fill-rule:nonzero;stroke:none;stroke-width:1.33333" />
    <path
       id="path29"
       d="m 554.55792,76.764067 c -0.70667,0 -1.276,0.570667 -1.276,1.276 0,0.704 0.56933,1.277333 1.276,1.277333 0.704,0 1.276,-0.573333 1.276,-1.277333 0,-0.705333 -0.572,-1.276 -1.276,-1.276"
       style="fill:#231f20;fill-opacity:1;fill-rule:nonzero;stroke:none;stroke-width:1.33333" />
    <path
       id="path30"
       d="m 560.59872,73.964201 c -0.70667,0 -1.276,0.570667 -1.276,1.276 0,0.704 0.56933,1.277333 1.276,1.277333 0.704,0 1.276,-0.573333 1.276,-1.277333 0,-0.705333 -0.572,-1.276 -1.276,-1.276"
       style="fill:#231f20;fill-opacity:1;fill-rule:nonzero;stroke:none;stroke-width:1.33333" />
    <path
       id="path31"
       d="m 295.83698,52.380334 c -0.296,0 -0.532,0.238667 -0.532,0.534667 v 19.957333 c -0.384,0.196 -0.752,0.432 -1.06667,0.745333 -0.84266,0.848 -1.308,1.969333 -1.308,3.162667 0,1.193333 0.46534,2.314666 1.31067,3.161333 0.84533,0.846667 1.968,1.309333 3.16133,1.309333 1.19467,0 2.31733,-0.462666 3.16267,-1.309333 0.844,-0.845333 1.30933,-1.965333 1.30933,-3.161333 0,-1.193334 -0.46533,-2.316 -1.30933,-3.162667 -1.10134,-1.1 -2.72533,-1.470667 -4.196,-1.14 V 52.915001 c 0,-0.296 -0.236,-0.534667 -0.532,-0.534667 M 297.40231,73.375 c 0.90934,0 1.764,0.354667 2.408,0.997334 0.64267,0.641333 0.99733,1.497333 0.99733,2.408 0,0.910666 -0.35466,1.766666 -0.99733,2.409333 -1.28933,1.286667 -3.528,1.286667 -4.81466,0 -0.64534,-0.645333 -1,-1.501333 -1,-2.409333 0,-0.906667 0.35466,-1.762667 0.99733,-2.408 0.644,-0.642667 1.5,-0.997334 2.40933,-0.997334"
       style="fill:#231f20;fill-opacity:1;fill-rule:nonzero;stroke:none;stroke-width:1.33333" />
    <path
       id="path32"
       d="m 305.01552,72.190067 c -0.70133,-1.162666 -1.67333,-2.156 -2.81867,-2.890666 v -6.009334 c 0,-0.293333 -0.23866,-0.532 -0.53333,-0.532 -0.29333,0 -0.532,0.238667 -0.532,0.532 v 6.306667 c 0,0.185333 0.0987,0.361333 0.26133,0.457333 1.108,0.657334 2.04534,1.585334 2.71067,2.686667 0.736,1.217333 1.124,2.613333 1.124,4.044 0,2.089333 -0.81333,4.056 -2.292,5.533333 -1.476,1.478667 -3.44133,2.292 -5.53333,2.292 -2.09067,0 -4.056,-0.813333 -5.53467,-2.292 -1.47867,-1.477333 -2.292,-3.444 -2.292,-5.533333 0,-1.428 0.388,-2.826667 1.12533,-4.044 0.66534,-1.101333 1.60134,-2.029333 2.71067,-2.686667 0.16133,-0.096 0.26133,-0.272 0.26133,-0.457333 v -16.448 c 0,-0.990666 0.388,-1.928 1.09334,-2.633333 1.41466,-1.410667 3.85466,-1.414667 5.27066,0 0.704,0.705333 1.09467,1.64 1.09467,2.633333 v 1.050667 c 0,0.293333 0.23867,0.533333 0.532,0.533333 0.29467,0 0.53333,-0.24 0.53333,-0.533333 v -1.050667 c 0,-1.276 -0.49866,-2.48 -1.408,-3.388 -1.812,-1.810666 -4.952,-1.817333 -6.77466,0 -0.908,0.908 -1.408,2.112 -1.408,3.388 v 16.150667 c -1.14534,0.734666 -2.116,1.728 -2.81867,2.890666 -0.83467,1.381334 -1.27867,2.972 -1.27867,4.594667 0,2.374666 0.92534,4.608 2.60667,6.286666 1.67867,1.68 3.912,2.604 6.28667,2.604 2.376,0 4.60933,-0.924 6.28666,-2.604 1.68134,-1.68 2.60534,-3.913333 2.60534,-6.286666 0,-1.625334 -0.44267,-3.213333 -1.27867,-4.594667"
       style="fill:#231f20;fill-opacity:1;fill-rule:nonzero;stroke:none;stroke-width:1.33333" />
    <path
       id="path33"
       d="m 300.75698,55.793267 c 0,0.497334 0.404,0.902667 0.90267,0.902667 0.49733,0 0.9,-0.405333 0.9,-0.902667 0,-0.497333 -0.40267,-0.902666 -0.9,-0.902666 -0.49867,0 -0.90267,0.405333 -0.90267,0.902666"
       style="fill:#231f20;fill-opacity:1;fill-rule:nonzero;stroke:none;stroke-width:1.33333" />
    <path
       id="path34"
       d="m 302.58778,61.399134 c 0,-0.497333 -0.404,-0.902666 -0.90267,-0.902666 -0.49733,0 -0.9,0.405333 -0.9,0.902666 0,0.497334 0.40267,0.902667 0.9,0.902667 0.49867,0 0.90267,-0.405333 0.90267,-0.902667"
       style="fill:#231f20;fill-opacity:1;fill-rule:nonzero;stroke:none;stroke-width:1.33333" />
    <path
       id="path35"
       d="m 304.14765,59.359934 c 0.49733,0 0.90267,-0.404 0.90267,-0.902666 0,-0.497334 -0.40534,-0.9 -0.90267,-0.9 -0.49733,0 -0.90267,0.402666 -0.90267,0.9 0,0.498666 0.40534,0.902666 0.90267,0.902666"
       style="fill:#231f20;fill-opacity:1;fill-rule:nonzero;stroke:none;stroke-width:1.33333" />
    <path
       id="path36"
       d="m 300.02672,58.457667 c 0,-0.497333 -0.40267,-0.902666 -0.90267,-0.902666 -0.49733,0 -0.9,0.405333 -0.9,0.902666 0,0.497334 0.40267,0.902667 0.9,0.902667 0.5,0 0.90267,-0.405333 0.90267,-0.902667"
       style="fill:#231f20;fill-opacity:1;fill-rule:nonzero;stroke:none;stroke-width:1.33333" />
    <path
       id="path37"
       d="m 295.83698,130.84407 c -0.296,0 -0.532,0.23866 -0.532,0.532 v 6.57333 c -0.384,0.19733 -0.75067,0.43467 -1.064,0.74667 -0.84533,0.84533 -1.31067,1.96933 -1.31067,3.16133 0,1.19333 0.46534,2.31866 1.31067,3.164 0.844,0.844 1.96667,1.30933 3.16133,1.30933 1.19467,0 2.31733,-0.46533 3.16,-1.30933 0.84667,-0.844 1.312,-1.968 1.312,-3.164 0,-1.19334 -0.46533,-2.316 -1.312,-3.16133 -1.096,-1.09867 -2.72266,-1.46934 -4.19333,-1.14 v -6.18 c 0,-0.29334 -0.236,-0.532 -0.532,-0.532 m 1.56533,7.608 c 0.90934,0 1.764,0.35466 2.408,0.99866 0.64267,0.64267 0.99733,1.49867 0.99733,2.40667 0,0.91066 -0.35466,1.76666 -0.99733,2.40933 -1.28666,1.28667 -3.53066,1.28667 -4.81733,0 -0.64267,-0.64267 -0.99733,-1.49867 -0.99733,-2.40933 0,-0.908 0.35466,-1.764 0.99733,-2.40667 0.644,-0.644 1.5,-0.99866 2.40933,-0.99866"
       style="fill:#231f20;fill-opacity:1;fill-rule:nonzero;stroke:none;stroke-width:1.33333" />
    <path
       id="path38"
       d="m 305.01552,137.26327 c -0.704,-1.16134 -1.67333,-2.15467 -2.81867,-2.88934 v -7.572 c 0,-0.29333 -0.23866,-0.532 -0.53333,-0.532 -0.29333,0 -0.532,0.23867 -0.532,0.532 v 7.86934 c 0,0.188 0.0987,0.36266 0.26133,0.45733 1.10667,0.66 2.04534,1.58667 2.71067,2.68667 0.736,1.21866 1.124,2.61466 1.124,4.044 0,2.09066 -0.81333,4.056 -2.29333,5.53333 -1.47467,1.47866 -3.44,2.292 -5.532,2.292 -2.09067,0 -4.056,-0.81334 -5.53467,-2.292 -1.47867,-1.47733 -2.292,-3.44267 -2.292,-5.53333 0,-1.428 0.388,-2.82534 1.12533,-4.044 0.66534,-1.1 1.60134,-2.02667 2.71067,-2.68667 0.16133,-0.0947 0.26133,-0.26933 0.26133,-0.45733 V 118.2246 c 0,-0.992 0.388,-1.928 1.09334,-2.63467 1.41466,-1.40933 3.85466,-1.41333 5.27066,0 0.704,0.70667 1.09467,1.64134 1.09467,2.63467 v 1.93333 c 0,0.29334 0.23867,0.532 0.532,0.532 0.29467,0 0.53333,-0.23866 0.53333,-0.532 v -1.93333 c 0,-1.27733 -0.49866,-2.48 -1.408,-3.38933 -1.812,-1.81067 -4.952,-1.816 -6.77466,0 -0.908,0.90933 -1.408,2.112 -1.408,3.38933 v 16.14933 c -1.14534,0.73467 -2.116,1.728 -2.81867,2.892 -0.83467,1.38134 -1.27867,2.97334 -1.27867,4.59334 0,2.376 0.92534,4.60933 2.60667,6.28799 1.67867,1.67867 3.912,2.604 6.28667,2.604 2.376,0 4.60933,-0.92533 6.28666,-2.604 1.67867,-1.68133 2.60534,-3.91466 2.60534,-6.28799 0,-1.624 -0.44267,-3.212 -1.27867,-4.596"
       style="fill:#231f20;fill-opacity:1;fill-rule:nonzero;stroke:none;stroke-width:1.33333" />
    <path
       id="path39"
       d="m 300.75498,123.32847 c 0,0.49733 0.404,0.90266 0.90267,0.90266 0.49733,0 0.9,-0.40533 0.9,-0.90266 0,-0.49734 -0.40267,-0.90267 -0.9,-0.90267 -0.49867,0 -0.90267,0.40533 -0.90267,0.90267"
       style="fill:#231f20;fill-opacity:1;fill-rule:nonzero;stroke:none;stroke-width:1.33333" />
    <path
       id="path40"
       d="M 388.25365,68.516201 V 52.118868 c 0.004,-1.252 -0.48133,-2.430666 -1.36533,-3.317333 -0.884,-0.888 -2.06134,-1.377333 -3.31334,-1.38 h -0.0107 c -2.584,0 -4.688,2.104 -4.688,4.696 v 16.398666 c -3.97734,2.496 -5.28934,7.736 -2.91467,11.829333 1.49733,2.570667 4.16133,4.197333 7.16,4.350667 h 0.44267 c 4.83733,0 8.76933,-3.934667 8.76933,-8.769333 0,-3 -1.55467,-5.812 -4.08,-7.410667 m -4.68933,15.116 h -0.41734 c -2.60666,-0.133333 -4.94933,-1.564 -6.26266,-3.824 -2.13467,-3.673333 -0.88267,-8.397333 2.792,-10.533333 0.164,-0.09333 0.264,-0.270667 0.264,-0.458667 V 52.109535 c 0,-1.998667 1.62666,-3.624 3.624,-3.624 v -0.532 l 0.008,0.532 c 0.96666,0.0027 1.87733,0.381333 2.56133,1.066667 0.68133,0.685333 1.05733,1.596 1.056,2.565333 v 16.698666 c 0,0.188 0.10133,0.364 0.26267,0.458667 2.35466,1.376 3.81733,3.922666 3.81733,6.652 0,4.246666 -3.45467,7.705333 -7.70533,7.705333"
       style="fill:#231f20;fill-opacity:1;fill-rule:nonzero;stroke:none;stroke-width:1.33333" />
    <path
       id="path41"
       d="M 384.08818,74.051267 V 51.903268 c 0,-0.293334 -0.23867,-0.532 -0.532,-0.532 -0.296,0 -0.532,0.238666 -0.532,0.532 v 22.147999 c -1.11467,0.250667 -1.964,1.2 -1.964,2.386667 0,1.378666 1.11867,2.498666 2.496,2.498666 1.376,0 2.496,-1.12 2.496,-2.498666 0,-1.185333 -0.852,-2.136 -1.964,-2.386667"
       style="fill:#231f20;fill-opacity:1;fill-rule:nonzero;stroke:none;stroke-width:1.33333" />
    <path
       id="path42"
       d="m 391.89112,51.257534 c -0.56267,0 -1.01733,0.454667 -1.01733,1.017334 0,0.562666 0.45466,1.017333 1.01733,1.017333 0.56267,0 1.01733,-0.454667 1.01733,-1.017333 0,-0.562667 -0.45466,-1.017334 -1.01733,-1.017334"
       style="fill:#231f20;fill-opacity:1;fill-rule:nonzero;stroke:none;stroke-width:1.33333" />
    <path
       id="path43"
       d="m 388.32245,133.59141 v -16.39867 c 0.004,-2.584 -2.09333,-4.692 -4.68133,-4.696 h -0.008 c -2.584,0 -4.688,2.104 -4.688,4.696 v 16.39867 c -3.97467,2.496 -5.292,7.736 -2.91334,11.82933 1.496,2.57066 4.16267,4.19733 7.156,4.35066 h 0.44534 c 4.83733,0 8.76933,-3.93466 8.76933,-8.76933 0,-3.00266 -1.55467,-5.81466 -4.08,-7.41066 m -4.68933,15.11599 h -0.41734 c -2.60666,-0.13333 -4.94933,-1.564 -6.26533,-3.824 -2.132,-3.67333 -0.88,-8.39733 2.796,-10.53333 0.16267,-0.0933 0.26267,-0.27066 0.26267,-0.45866 v -16.70667 c 0,-1.99867 1.62666,-3.624 3.624,-3.624 v -0.532 l 0.008,0.532 c 0.96666,0.003 1.876,0.38133 2.56133,1.06667 0.68133,0.68533 1.05733,1.596 1.056,2.56533 v 16.69867 c 0,0.188 0.0987,0.364 0.26267,0.45866 2.35466,1.37334 3.81733,3.92267 3.81733,6.652 0,4.24667 -3.45733,7.70533 -7.70533,7.70533"
       style="fill:#231f20;fill-opacity:1;fill-rule:nonzero;stroke:none;stroke-width:1.33333" />
    <path
       id="path44"
       d="m 384.15698,139.12847 v -5.04534 c 0,-0.29333 -0.23867,-0.532 -0.532,-0.532 -0.29333,0 -0.532,0.23867 -0.532,0.532 v 5.04534 c -1.11467,0.24933 -1.96667,1.2 -1.96667,2.38666 0,1.37867 1.12134,2.49867 2.496,2.49867 1.37867,0 2.49734,-1.12 2.49734,-2.49867 0,-1.18533 -0.84934,-2.136 -1.96267,-2.38666"
       style="fill:#231f20;fill-opacity:1;fill-rule:nonzero;stroke:none;stroke-width:1.33333" />
    <path
       id="path45"
       d="m 391.82232,130.33234 c -0.56267,0 -1.01733,0.45466 -1.01733,1.01733 0,0.56267 0.45466,1.01733 1.01733,1.01733 0.56267,0 1.01733,-0.45466 1.01733,-1.01733 0,-0.56267 -0.45466,-1.01733 -1.01733,-1.01733"
       style="fill:#231f20;fill-opacity:1;fill-rule:nonzero;stroke:none;stroke-width:1.33333" />
    <path
       id="path46"
       d="m 831.28418,47.660601 h -3.08667 -30.036 -3.088 c -0.29333,0 -0.532,0.238667 -0.532,0.532 0,0.293334 0.23867,0.532 0.532,0.532 h 2.55467 v 24.102666 c 0,3.097334 2.39333,5.617333 5.42267,5.881333 0.032,0.0053 0.052,0.036 0.084,0.036 0.0213,0 0.0333,-0.02 0.0507,-0.02267 0.128,0.008 0.24934,0.03867 0.37734,0.03867 h 19.232 c 0.12666,0 0.24533,-0.03067 0.37066,-0.03867 0.0187,0.0027 0.0307,0.02267 0.0507,0.02267 0.032,0 0.0533,-0.03067 0.0827,-0.03467 3.03333,-0.26 5.43066,-2.784 5.43066,-5.882667 V 48.724601 h 2.55467 c 0.29333,0 0.532,-0.238666 0.532,-0.532 0,-0.293333 -0.23867,-0.532 -0.532,-0.532 m -8.6,30.035999 H 803.66685 V 48.727268 h 19.01733 z M 798.69351,72.827267 V 48.724601 h 3.90934 v 28.874666 c -2.22667,-0.446667 -3.90934,-2.417333 -3.90934,-4.772 m 28.972,0 c 0,2.357334 -1.688,4.326667 -3.91733,4.772 V 48.724601 h 3.91733 z"
       style="fill:#231f20;fill-opacity:1;fill-rule:nonzero;stroke:none;stroke-width:1.33333" />
    <path
       id="path47"
       d="m 818.24552,62.780867 c 0.34,0 0.61733,-0.277333 0.61733,-0.618666 0,-0.34 -0.27733,-0.617334 -0.61733,-0.617334 -0.34,0 -0.61733,0.277334 -0.61733,0.617334 0,0.341333 0.27733,0.618666 0.61733,0.618666"
       style="fill:#231f20;fill-opacity:1;fill-rule:nonzero;stroke:none;stroke-width:1.33333" />
    <path
       id="path48"
       d="m 819.56858,63.747801 c 0.34,0 0.61733,-0.277333 0.61733,-0.618666 0,-0.34 -0.27733,-0.617334 -0.61733,-0.617334 -0.34,0 -0.61733,0.277334 -0.61733,0.617334 0,0.341333 0.27733,0.618666 0.61733,0.618666"
       style="fill:#231f20;fill-opacity:1;fill-rule:nonzero;stroke:none;stroke-width:1.33333" />
    <path
       id="path49"
       d="m 819.56858,65.920601 c 0.34,0 0.61733,-0.277333 0.61733,-0.618666 0,-0.34 -0.27733,-0.617334 -0.61733,-0.617334 -0.34,0 -0.61733,0.277334 -0.61733,0.617334 0,0.341333 0.27733,0.618666 0.61733,0.618666"
       style="fill:#231f20;fill-opacity:1;fill-rule:nonzero;stroke:none;stroke-width:1.33333" />
    <path
       id="path50"
       d="m 820.75005,64.741134 c 0.34,0 0.61733,-0.277333 0.61733,-0.618666 0,-0.34 -0.27733,-0.617334 -0.61733,-0.617334 -0.34,0 -0.61733,0.277334 -0.61733,0.617334 0,0.341333 0.27733,0.618666 0.61733,0.618666"
       style="fill:#231f20;fill-opacity:1;fill-rule:nonzero;stroke:none;stroke-width:1.33333" />
    <path
       id="path51"
       d="m 808.21312,62.780867 c 0.34,0 0.61733,-0.277333 0.61733,-0.618666 0,-0.34 -0.27733,-0.617334 -0.61733,-0.617334 -0.34,0 -0.61733,0.277334 -0.61733,0.617334 0,0.341333 0.27733,0.618666 0.61733,0.618666"
       style="fill:#231f20;fill-opacity:1;fill-rule:nonzero;stroke:none;stroke-width:1.33333" />
    <path
       id="path52"
       d="m 806.89232,63.747801 c 0.34,0 0.61733,-0.277333 0.61733,-0.618666 0,-0.34 -0.27733,-0.617334 -0.61733,-0.617334 -0.34,0 -0.61733,0.277334 -0.61733,0.617334 0,0.341333 0.27733,0.618666 0.61733,0.618666"
       style="fill:#231f20;fill-opacity:1;fill-rule:nonzero;stroke:none;stroke-width:1.33333" />
    <path
       id="path53"
       d="m 808.21312,66.891667 c 0.34,0 0.61733,-0.277333 0.61733,-0.618666 0,-0.34 -0.27733,-0.617334 -0.61733,-0.617334 -0.34,0 -0.61733,0.277334 -0.61733,0.617334 0,0.341333 0.27733,0.618666 0.61733,0.618666"
       style="fill:#231f20;fill-opacity:1;fill-rule:nonzero;stroke:none;stroke-width:1.33333" />
    <path
       id="path54"
       d="m 806.89232,64.684601 c -0.34,0 -0.61733,0.277334 -0.61733,0.618667 0,0.34 0.27733,0.617333 0.61733,0.617333 0.34,0 0.61733,-0.277333 0.61733,-0.617333 0,-0.341333 -0.27733,-0.618667 -0.61733,-0.618667"
       style="fill:#231f20;fill-opacity:1;fill-rule:nonzero;stroke:none;stroke-width:1.33333" />
    <path
       id="path55"
       d="m 805.71072,64.741134 c 0.34,0 0.61733,-0.277333 0.61733,-0.618666 0,-0.34 -0.27733,-0.617334 -0.61733,-0.617334 -0.34,0 -0.61733,0.277334 -0.61733,0.617334 0,0.341333 0.27733,0.618666 0.61733,0.618666"
       style="fill:#231f20;fill-opacity:1;fill-rule:nonzero;stroke:none;stroke-width:1.33333" />
    <path
       id="path56"
       d="m 818.24552,66.891667 c 0.34,0 0.61733,-0.277333 0.61733,-0.618666 0,-0.34 -0.27733,-0.617334 -0.61733,-0.617334 -0.34,0 -0.61733,0.277334 -0.61733,0.617334 0,0.341333 0.27733,0.618666 0.61733,0.618666"
       style="fill:#231f20;fill-opacity:1;fill-rule:nonzero;stroke:none;stroke-width:1.33333" />
    <path
       id="path57"
       d="m 803.44285,130.73087 c -0.34,0 -0.61733,0.27733 -0.61733,0.61866 0,0.34 0.27733,0.61734 0.61733,0.61734 0.34,0 0.61733,-0.27734 0.61733,-0.61734 0,-0.34133 -0.27733,-0.61866 -0.61733,-0.61866"
       style="fill:#231f20;fill-opacity:1;fill-rule:nonzero;stroke:none;stroke-width:1.33333" />
    <path
       id="path58"
       d="m 804.76592,129.76381 c -0.34,0 -0.61733,0.27733 -0.61733,0.61866 0,0.34 0.27733,0.61734 0.61733,0.61734 0.34,0 0.61733,-0.27734 0.61733,-0.61734 0,-0.34133 -0.27733,-0.61866 -0.61733,-0.61866"
       style="fill:#231f20;fill-opacity:1;fill-rule:nonzero;stroke:none;stroke-width:1.33333" />
    <path
       id="path59"
       d="m 803.44285,126.62007 c -0.34,0 -0.61733,0.27733 -0.61733,0.61866 0,0.34 0.27733,0.61734 0.61733,0.61734 0.34,0 0.61733,-0.27734 0.61733,-0.61734 0,-0.34133 -0.27733,-0.61866 -0.61733,-0.61866"
       style="fill:#231f20;fill-opacity:1;fill-rule:nonzero;stroke:none;stroke-width:1.33333" />
    <path
       id="path60"
       d="m 804.76592,128.82714 c 0.34,0 0.61733,-0.27734 0.61733,-0.61867 0,-0.34 -0.27733,-0.61733 -0.61733,-0.61733 -0.34,0 -0.61733,0.27733 -0.61733,0.61733 0,0.34133 0.27733,0.61867 0.61733,0.61867"
       style="fill:#231f20;fill-opacity:1;fill-rule:nonzero;stroke:none;stroke-width:1.33333" />
    <path
       id="path61"
       d="m 805.94738,128.77047 c -0.34,0 -0.61733,0.27733 -0.61733,0.61866 0,0.34 0.27733,0.61734 0.61733,0.61734 0.34,0 0.61733,-0.27734 0.61733,-0.61734 0,-0.34133 -0.27733,-0.61866 -0.61733,-0.61866"
       style="fill:#231f20;fill-opacity:1;fill-rule:nonzero;stroke:none;stroke-width:1.33333" />
    <path
       id="path62"
       d="m 822.91272,130.73087 c -0.34,0 -0.61733,0.27733 -0.61733,0.61866 0,0.34 0.27733,0.61734 0.61733,0.61734 0.34,0 0.61733,-0.27734 0.61733,-0.61734 0,-0.34133 -0.27733,-0.61866 -0.61733,-0.61866"
       style="fill:#231f20;fill-opacity:1;fill-rule:nonzero;stroke:none;stroke-width:1.33333" />
    <path
       id="path63"
       d="m 821.58952,129.76381 c -0.34,0 -0.61733,0.27733 -0.61733,0.61866 0,0.34 0.27733,0.61734 0.61733,0.61734 0.34,0 0.61733,-0.27734 0.61733,-0.61734 0,-0.34133 -0.27733,-0.61866 -0.61733,-0.61866"
       style="fill:#231f20;fill-opacity:1;fill-rule:nonzero;stroke:none;stroke-width:1.33333" />
    <path
       id="path64"
       d="m 821.58952,127.59101 c -0.34,0 -0.61733,0.27733 -0.61733,0.61866 0,0.34 0.27733,0.61734 0.61733,0.61734 0.34,0 0.61733,-0.27734 0.61733,-0.61734 0,-0.34133 -0.27733,-0.61866 -0.61733,-0.61866"
       style="fill:#231f20;fill-opacity:1;fill-rule:nonzero;stroke:none;stroke-width:1.33333" />
    <path
       id="path65"
       d="m 820.40818,128.77047 c -0.34,0 -0.61733,0.27733 -0.61733,0.61866 0,0.34 0.27733,0.61734 0.61733,0.61734 0.34,0 0.61733,-0.27734 0.61733,-0.61734 0,-0.34133 -0.27733,-0.61866 -0.61733,-0.61866"
       style="fill:#231f20;fill-opacity:1;fill-rule:nonzero;stroke:none;stroke-width:1.33333" />
    <path
       id="path66"
       d="m 822.91272,126.62007 c -0.34,0 -0.61733,0.27733 -0.61733,0.61866 0,0.34 0.27733,0.61734 0.61733,0.61734 0.34,0 0.61733,-0.27734 0.61733,-0.61734 0,-0.34133 -0.27733,-0.61866 -0.61733,-0.61866"
       style="fill:#231f20;fill-opacity:1;fill-rule:nonzero;stroke:none;stroke-width:1.33333" />
    <path
       id="path67"
       d="m 831.28418,112.73594 h -3.08667 -30.036 -3.088 c -0.29333,0 -0.532,0.23866 -0.532,0.532 0,0.29333 0.23867,0.532 0.532,0.532 h 2.55467 v 24.10266 c 0,3.09733 2.39333,5.61867 5.42267,5.88133 0.032,0.005 0.052,0.036 0.084,0.036 0.0213,0 0.0333,-0.02 0.0507,-0.0227 0.128,0.008 0.24934,0.0387 0.37734,0.0387 h 19.232 c 0.128,0 0.24533,-0.0307 0.37066,-0.0387 0.0187,0.003 0.0307,0.0227 0.0507,0.0227 0.032,0 0.0533,-0.0307 0.0827,-0.0347 3.03333,-0.26 5.43066,-2.784 5.43066,-5.88267 V 113.7999 h 2.55467 c 0.29333,0 0.532,-0.23867 0.532,-0.532 0,-0.29334 -0.23867,-0.532 -0.532,-0.532 m -16.69477,30.03603 h -2.83066 V 113.8026 h 2.83066 z m -11.98666,-0.0973 c -2.22667,-0.44667 -3.90934,-2.41733 -3.90934,-4.772 v -24.10266 h 3.70934 0.2 1.06533 0.276 6.752 v 28.97196 h -7.028 c 0,0 -0.56933,0.0307 -1.06533,-0.0973 m 25.06266,-4.772 c 0,2.35067 -1.68,4.31467 -3.89866,4.76667 0,0.001 -0.003,0.001 -0.003,0.001 -0.001,0 -0.005,0 -0.008,0.003 -10e-4,0 -0.005,10e-4 -0.008,10e-4 -0.42,0.10933 -0.98933,0.096 -1.064,0.0933 v 0.004 h -7.028 v -28.97199 h 6.76667 v -0.001 h 1.54133 v 0.001 h 3.70133 z"
       style="fill:#231f20;fill-opacity:1;fill-rule:nonzero;stroke:none;stroke-width:1.33333" />
    <path
       id="path68"
       d="m 725.80458,62.859801 c 0.10133,0.028 0.20267,0.04 0.304,0.04 0.19733,0 0.396,-0.052 0.57333,-0.153333 0.268,-0.153333 0.45734,-0.404 0.53467,-0.689333 0.028,-0.09733 0.0427,-0.202667 0.0427,-0.310667 V 46.269135 c 0,-0.625333 -0.5,-1.134667 -1.11867,-1.156 -0.0267,-0.004 -0.0533,-0.0013 -0.0787,-0.0013 -0.084,0.004 -0.172,0.02 -0.25733,0.04267 -3.99333,1.073334 -6.78533,4.710667 -6.78933,8.848 10e-4,4.14 2.79333,7.781333 6.78933,8.857333 m 0.28267,-16.663999 c 0.0173,-0.004 0.0227,-0.004 0.0227,-0.004 l -0.024,-0.537334 0.0933,0.614667 -0.0933,15.549333 c -3.52666,-0.949333 -5.988,-4.164 -5.99066,-7.816 0.004,-3.649333 2.46666,-6.857333 5.992,-7.806666"
       style="fill:#231f20;fill-opacity:1;fill-rule:nonzero;stroke:none;stroke-width:1.33333" />
    <path
       id="path69"
       d="m 746.31418,61.297934 c -1.076,-3.997333 -4.71733,-6.786666 -8.85733,-6.786666 -4.132,0 -7.772,2.789333 -8.848,6.786666 -0.16667,0.613334 0.19733,1.248 0.82933,1.42 0.0987,0.02267 0.19333,0.03467 0.28533,0.03467 h 15.476 c 0.63734,0 1.15467,-0.518667 1.15467,-1.154667 0,-0.108 -0.0133,-0.213333 -0.04,-0.3 m -16.664,0.282667 c 0.95067,-3.528 4.16133,-5.989333 7.80667,-5.989333 3.652,0 6.864,2.461333 7.74266,6.082666 z"
       style="fill:#231f20;fill-opacity:1;fill-rule:nonzero;stroke:none;stroke-width:1.33333" />
    <path
       id="path70"
       d="m 730.17432,64.103934 c -0.11333,-0.032 -0.22667,-0.04267 -0.35067,-0.04267 h -0.001 c -0.62267,0.02667 -1.11067,0.532 -1.11067,1.157333 v 15.474666 c 0,0.637333 0.51734,1.154667 1.15467,1.154667 0.10533,0 0.20933,-0.01467 0.3,-0.04 3.996,-1.076 6.78666,-4.718667 6.78933,-8.857333 0,-4.133334 -2.792,-7.770667 -6.78133,-8.846667 m -0.38267,16.589333 V 65.218601 c 0,-0.04 0.032,-0.07467 0.0733,-0.07733 l -0.0227,-0.541334 0.0427,0.544 c 3.52666,0.950667 5.99066,4.161333 5.99066,7.809333 -0.003,3.649334 -2.46667,6.864 -6.084,7.74"
       style="fill:#231f20;fill-opacity:1;fill-rule:nonzero;stroke:none;stroke-width:1.33333" />
    <path
       id="path71"
       d="m 726.55512,64.247534 c -0.0973,-0.024 -0.2,-0.04 -0.30533,-0.04 h -15.476 c -0.63734,0 -1.156,0.517334 -1.156,1.154667 0,0.09867 0.012,0.198667 0.0413,0.301333 1.07333,3.989333 4.71333,6.784 8.848,6.788 4.14,-0.0027 7.78133,-2.796 8.85733,-6.788 0.0813,-0.297333 0.04,-0.610666 -0.11333,-0.877333 -0.15333,-0.265333 -0.40267,-0.457333 -0.696,-0.538667 m -8.048,7.122667 c -3.64667,-0.004 -6.85733,-2.468 -7.80933,-6.008 0,-0.04267 0.0333,-0.07467 0.076,-0.07467 l 15.54933,0.09333 c -0.952,3.523999 -4.164,5.987999 -7.816,5.989333"
       style="fill:#231f20;fill-opacity:1;fill-rule:nonzero;stroke:none;stroke-width:1.33333" />
    <path
       id="path72"
       d="m 738.43845,50.521134 c -0.528,0 -0.95733,0.429334 -0.95733,0.957334 0,0.528 0.42933,0.954666 0.95733,0.954666 0.528,0 0.95733,-0.426666 0.95733,-0.954666 0,-0.528 -0.42933,-0.957334 -0.95733,-0.957334"
       style="fill:#231f20;fill-opacity:1;fill-rule:nonzero;stroke:none;stroke-width:1.33333" />
    <path
       id="path73"
       d="m 741.41432,49.313401 c 0.528,0 0.95733,-0.429333 0.95733,-0.957333 0,-0.528 -0.42933,-0.956 -0.95733,-0.956 -0.528,0 -0.95733,0.428 -0.95733,0.956 0,0.528 0.42933,0.957333 0.95733,0.957333"
       style="fill:#231f20;fill-opacity:1;fill-rule:nonzero;stroke:none;stroke-width:1.33333" />
    <path
       id="path74"
       d="m 735.72152,49.313401 c 0.528,0 0.95733,-0.429333 0.95733,-0.957333 0,-0.528 -0.42933,-0.956 -0.95733,-0.956 -0.528,0 -0.95733,0.428 -0.95733,0.956 0,0.528 0.42933,0.957333 0.95733,0.957333"
       style="fill:#231f20;fill-opacity:1;fill-rule:nonzero;stroke:none;stroke-width:1.33333" />
    <path
       id="path75"
       d="m 725.77418,127.64167 c 0.10133,0.0267 0.20267,0.04 0.3,0.04 0.51067,0 0.97867,-0.34 1.116,-0.85067 0.0267,-0.0973 0.04,-0.20267 0.04,-0.30667 v -15.71466 c 0,-0.62934 -0.49867,-1.14134 -1.12,-1.15867 -0.024,-0.003 -0.0467,-0.003 -0.0747,-0.003 -0.0973,0.004 -0.19066,0.02 -0.26133,0.0453 -4.04667,1.088 -6.876,4.776 -6.88267,8.96933 0.003,4.19467 2.83067,7.88667 6.88267,8.97867 m 0.0933,-16.87067 c 0.0947,0.0507 0.19334,0.0773 0.29867,0.0387 l -10e-4,15.73333 c 0,0.003 -0.11334,0.0693 -0.11334,0.0707 -3.58666,-0.96934 -6.09333,-4.236 -6.096,-7.952 0.007,-3.64 2.41734,-6.852 5.912,-7.89067"
       style="fill:#231f20;fill-opacity:1;fill-rule:nonzero;stroke:none;stroke-width:1.33333" />
    <path
       id="path76"
       d="m 746.58325,126.07581 c -1.09067,-4.05067 -4.78267,-6.88 -8.97867,-6.88267 -4.192,0 -7.88,2.83067 -8.96933,6.88267 -0.0813,0.29733 -0.0427,0.60933 0.11333,0.87866 0.15334,0.26667 0.40267,0.46 0.716,0.544 0.0973,0.0213 0.19334,0.0333 0.28667,0.0333 h 15.71467 c 0.64,0 1.15733,-0.51734 1.15733,-1.15467 0,-0.10267 -0.0133,-0.208 -0.04,-0.30133 m -1.11733,0.392 h -15.71467 l -0.0907,-0.11334 c 0.96667,-3.588 4.23467,-6.09733 7.944,-6.09733 v -0.532 0.532 c 3.71734,0.003 6.984,2.50933 7.95067,6.09733 0,0 -0.0893,0.112 -0.0893,0.11334"
       style="fill:#231f20;fill-opacity:1;fill-rule:nonzero;stroke:none;stroke-width:1.33333" />
    <path
       id="path77"
       d="m 730.20058,128.93434 c -0.12,-0.032 -0.23467,-0.0347 -0.35467,-0.04 -0.62,0.028 -1.10533,0.536 -1.10533,1.15733 v 15.716 c 0,0.63733 0.51733,1.156 1.156,1.156 0.10533,0 0.20667,-0.012 0.3,-0.0413 4.052,-1.088 6.88266,-4.78 6.88266,-8.976 0,-4.19199 -2.83066,-7.87999 -6.87866,-8.97199 m -0.28267,16.92266 -0.11333,-0.0893 v -15.716 c 0,-0.0507 0.0373,-0.0893 0.088,-0.092 l -0.02,-0.53333 0.0493,0.536 c 3.58667,0.96666 6.09333,4.232 6.09333,7.94399 -0.003,3.71467 -2.50666,6.98534 -6.09733,7.95067"
       style="fill:#231f20;fill-opacity:1;fill-rule:nonzero;stroke:none;stroke-width:1.33333" />
    <path
       id="path78"
       d="m 726.52685,129.08207 c -0.10133,-0.0267 -0.204,-0.0427 -0.30533,-0.0427 h -15.71734 c -0.63733,0 -1.15733,0.52 -1.15733,1.16 0,0.0987 0.0147,0.2 0.0413,0.30133 1.08934,4.04534 4.78,6.876 8.972,6.88 4.19334,0 7.88534,-2.83066 8.97734,-6.88266 0.16666,-0.61467 -0.20134,-1.252 -0.81067,-1.416 m -8.16667,7.232 c -3.712,-0.004 -6.98,-2.508 -7.94666,-6.11467 0,-0.0533 0.04,-0.0933 0.0907,-0.0933 l 15.736,0.004 c 10e-4,0 0.068,0.11066 0.0707,0.11066 -0.968,3.58934 -4.23733,6.09334 -7.95067,6.09334"
       style="fill:#231f20;fill-opacity:1;fill-rule:nonzero;stroke:none;stroke-width:1.33333" />
    <path
       id="path79"
       d="m 737.83365,114.11154 c 0.536,0 0.97067,-0.43467 0.97067,-0.97067 0,-0.536 -0.43467,-0.972 -0.97067,-0.972 -0.536,0 -0.97067,0.436 -0.97067,0.972 0,0.536 0.43467,0.97067 0.97067,0.97067"
       style="fill:#231f20;fill-opacity:1;fill-rule:nonzero;stroke:none;stroke-width:1.33333" />
    <path
       id="path80"
       d="m 642.74645,109.67101 c -4.264,-0.3 -8.05333,2.496 -9.03333,6.61333 -0.11734,0.396 -0.0373,0.832 0.24933,1.204 0.18,0.192 0.412,0.33733 0.66933,0.416 0.804,0.24267 1.64934,-0.216 1.89734,-1.036 0.67066,-2.548 2.97466,-4.324 5.61466,-4.324 h 0.024 c 0.476,-0.0253 0.83734,0.044 1.24,0.13067 0.88267,0.19466 1.716,0.59733 2.41333,1.164 2.48267,2.016 2.86134,5.67599 0.844,8.15999 -1.09866,1.364 -2.72933,2.14667 -4.47866,2.14667 h -0.02 c -4.78267,0 -8.676,3.892 -8.676,8.67333 v 12.668 c 0,0.79334 0.64533,1.436 1.43733,1.436 h 14.476 c 0.79333,0 1.43733,-0.64266 1.43733,-1.436 v -26.824 c 0.092,-4.64266 -3.46,-8.59333 -8.09466,-8.99199 m 7.03066,35.81599 c 0,0.20667 -0.16666,0.372 -0.37333,0.372 h -14.476 c -0.20533,0 -0.372,-0.16533 -0.372,-0.372 v -12.668 c 0,-4.196 3.41467,-7.60933 7.608,-7.60933 h 0.024 c 2.072,0 4.00533,-0.924 5.30533,-2.54 2.38667,-2.93867 1.93734,-7.272 -1.00133,-9.65866 -0.82666,-0.672 -1.81066,-1.14667 -2.85466,-1.376 -0.46934,-0.10267 -0.956,-0.156 -1.43734,-0.156 h -0.0627 c -3.11734,0 -5.844,2.10266 -6.63067,5.10133 -0.0707,0.23867 -0.32667,0.37733 -0.56267,0.30667 -0.0787,-0.024 -0.14933,-0.0707 -0.17066,-0.0867 -0.0453,-0.0613 -0.06,-0.14 -0.032,-0.24133 0.86666,-3.63734 4.21066,-6.09067 7.92266,-5.828 4.07067,0.352 7.19333,3.82533 7.11333,7.92266 z"
       style="fill:#231f20;fill-opacity:1;fill-rule:nonzero;stroke:none;stroke-width:1.33333" />
    <path
       id="path81"
       d="m 642.43498,134.45527 c -1.01333,0 -1.83333,0.82133 -1.83333,1.83333 0,1.01333 0.82,1.83467 1.83333,1.83467 1.01333,0 1.83333,-0.82134 1.83333,-1.83467 0,-1.012 -0.82,-1.83333 -1.83333,-1.83333"
       style="fill:#231f20;fill-opacity:1;fill-rule:nonzero;stroke:none;stroke-width:1.33333" />
    <path
       id="path82"
       d="m 658.58898,65.815401 c -0.19867,-0.242666 -0.50133,-0.382666 -0.82933,-0.382666 h -15.36134 c -0.31066,0 -0.6,0.129333 -0.80933,0.36 -0.228,0.249333 -0.32133,0.590666 -0.25467,0.876 l 2.05334,13.331999 c 0.15733,1.068 1.06266,1.846667 2.148,1.846667 h 9.08666 c 1.084,0 1.988,-0.774667 2.14934,-1.844 l 1.14133,-7.384 v -0.0027 l 0.912,-5.953333 c 0.0427,-0.304 -0.044,-0.613333 -0.236,-0.848 m -2.868,14.028 c -0.084,0.544 -0.54533,0.94 -1.09867,0.94 h -9.08666 c -0.55334,0 -1.01467,-0.396 -1.096,-0.942667 l -2.04134,-13.343999 15.37334,0.01067 z"
       style="fill:#231f20;fill-opacity:1;fill-rule:nonzero;stroke:none;stroke-width:1.33333" />
    <path
       id="path83"
       d="m 640.33712,71.344334 c 0,-0.03467 -0.0307,-0.05467 -0.036,-0.08667 l -0.184,-1.845334 c -0.184,-1.876 -1.736,-3.406666 -3.476,-3.442666 h -0.0267 -2.19866 v -20.316 c 0,-0.606666 -0.476,-1.08 -1.08267,-1.08 -0.60667,0 -1.08267,0.473334 -1.08267,1.08 v 20.316 h -1.65066 c -2.192,0 -3.872,1.413333 -4.084,3.44 l -1.00934,10.045333 c -0.0573,0.6 0.14267,1.209333 0.55067,1.678666 0.41067,0.456 0.99867,0.714667 1.61333,0.714667 h 11.29067 c 0.61467,0 1.204,-0.258667 1.61067,-0.714667 0.41066,-0.450666 0.61066,-1.064 0.552,-1.682666 l -0.80934,-8.054667 c 0.003,-0.02 0.0227,-0.032 0.0227,-0.052 m -9.73733,-4.309333 h 2.18266 c 0.296,0 0.532,-0.24 0.532,-0.533333 l 0.0347,-20.848 v 20.848 c 0,0.293333 0.23867,0.533333 0.532,0.533333 h 2.69867 c 1.07866,0 2.33066,0.997333 2.47733,2.484 l 0.12933,1.293333 h -11.74266 l 0.12933,-1.290666 c 0.15467,-1.465334 1.39867,-2.486667 3.02667,-2.486667 m 9.18266,13.386666 c -0.204,0.226667 -0.512,0.362667 -0.82133,0.362667 h -11.29067 c -0.31066,0 -0.61866,-0.136 -0.81733,-0.356 -0.212,-0.242667 -0.31733,-0.561333 -0.28667,-0.870667 l 0.77067,-7.681333 h 11.956 l 0.77067,7.677333 c 0.0307,0.321334 -0.0707,0.636 -0.28134,0.868"
       style="fill:#231f20;fill-opacity:1;fill-rule:nonzero;stroke:none;stroke-width:1.33333" />
    <path
       id="path84"
       d="m 651.03698,63.972467 c 0.48133,0 0.872,-0.390666 0.872,-0.872 0,-0.481333 -0.39067,-0.872 -0.872,-0.872 -0.48133,0 -0.872,0.390667 -0.872,0.872 0,0.481334 0.39067,0.872 0.872,0.872"
       style="fill:#231f20;fill-opacity:1;fill-rule:nonzero;stroke:none;stroke-width:1.33333" />
    <path
       id="path85"
       d="m 653.05992,61.039001 c 0.48133,0 0.872,-0.390666 0.872,-0.872 0,-0.481333 -0.39067,-0.872 -0.872,-0.872 -0.48133,0 -0.872,0.390667 -0.872,0.872 0,0.481334 0.39067,0.872 0.872,0.872"
       style="fill:#231f20;fill-opacity:1;fill-rule:nonzero;stroke:none;stroke-width:1.33333" />
    <path
       id="path86"
       d="m 656.63672,64.152467 c 0.48133,0 0.872,-0.390666 0.872,-0.872 0,-0.481333 -0.39067,-0.872 -0.872,-0.872 -0.48133,0 -0.872,0.390667 -0.872,0.872 0,0.481334 0.39067,0.872 0.872,0.872"
       style="fill:#231f20;fill-opacity:1;fill-rule:nonzero;stroke:none;stroke-width:1.33333" />
    <path
       id="path87"
       d="m 315.50498,195.33274 h -3.08667 -30.036 -3.088 c -0.29333,0 -0.532,0.23866 -0.532,0.532 0,0.29333 0.23867,0.532 0.532,0.532 h 2.55467 v 24.10266 c 0,3.27067 2.66267,5.93333 5.93467,5.93333 h 19.232 c 3.272,0 5.93466,-2.66266 5.93466,-5.93333 v -24.10266 h 2.55467 c 0.296,0 0.532,-0.23867 0.532,-0.532 0,-0.29334 -0.236,-0.532 -0.532,-0.532 m -8.48933,30.03599 h -19.232 c -2.68534,0 -4.86934,-2.18666 -4.86934,-4.86933 v -20.18933 h 28.972 v 20.18933 c 0,2.68267 -2.18533,4.86933 -4.87066,4.86933 m 4.87066,-26.12399 h -28.97066 v -2.848 h 28.97066 z"
       style="fill:#231f20;fill-opacity:1;fill-rule:nonzero;stroke:none;stroke-width:1.33333" />
    <path
       id="path88"
       d="m 297.40685,201.47674 c -0.53467,0 -0.96933,0.43333 -0.96933,0.96933 0,0.53333 0.43466,0.96667 0.96933,0.96667 0.53467,0 0.96933,-0.43334 0.96933,-0.96667 0,-0.536 -0.43466,-0.96933 -0.96933,-0.96933"
       style="fill:#231f20;fill-opacity:1;fill-rule:nonzero;stroke:none;stroke-width:1.33333" />
    <path
       id="path89"
       d="m 315.50498,258.38607 h -3.08667 -30.036 -3.088 c -0.29333,0 -0.532,0.23866 -0.532,0.532 0,0.29333 0.23867,0.532 0.532,0.532 h 2.55467 v 24.10266 c 0,1.03333 0.28933,1.99067 0.75733,2.83867 0.016,0.0213 0.0187,0.052 0.0387,0.072 1.02133,1.79466 2.92933,3.02266 5.13867,3.02266 h 19.232 c 2.20933,0 4.11733,-1.228 5.13866,-3.02266 0.0213,-0.02 0.0227,-0.0507 0.0387,-0.072 0.468,-0.848 0.75733,-1.80534 0.75733,-2.83867 v -24.10266 h 2.55467 c 0.296,0 0.532,-0.23867 0.532,-0.532 0,-0.29334 -0.236,-0.532 -0.532,-0.532 m -3.61867,25.16666 c 0,0.712 -0.164,1.38533 -0.44133,1.99733 h -28.09073 c -0.27733,-0.612 -0.44,-1.28533 -0.44,-1.99733 v -4.16933 h 28.972 z m -28.972,-12.28133 h 28.96934 v 7.048 h -28.9694 z m 28.972,-1.06534 h -28.97066 v -6.84133 h 28.97066 z m -4.87066,18.216 h -19.232 c -1.52,0 -2.86134,-0.71333 -3.75334,-1.808 h 26.73867 c -0.892,1.09467 -2.23333,1.808 -3.75333,1.808 m 4.87066,-26.12399 h -28.97066 v -2.848 h 28.97066 z"
       style="fill:#231f20;fill-opacity:1;fill-rule:nonzero;stroke:none;stroke-width:1.33333" />
    <path
       id="path90"
       d="m 298.03192,284.68594 c 0.53467,0 0.96933,-0.43334 0.96933,-0.96934 0,-0.53333 -0.43466,-0.96666 -0.96933,-0.96666 -0.53467,0 -0.96933,0.43333 -0.96933,0.96666 0,0.536 0.43466,0.96934 0.96933,0.96934"
       style="fill:#231f20;fill-opacity:1;fill-rule:nonzero;stroke:none;stroke-width:1.33333" />
    <path
       id="path91"
       d="m 130.51378,221.19047 c -0.79733,-1.11067 -1.24667,-1.61867 -1.544,-1.952 -0.27867,-0.316 -0.39467,-0.44534 -0.576,-0.824 -0.56667,-1.16667 -0.704,-2.55067 -0.41333,-4.112 0.0547,-0.29334 -0.13734,-0.57734 -0.432,-0.632 -0.28534,-0.0547 -0.57467,0.14 -0.62934,0.43333 -0.336,1.79467 -0.16666,3.40533 0.50134,4.78267 0.24933,0.512 0.44533,0.732 0.74266,1.068 0.28267,0.32 0.708,0.79866 1.472,1.86533 1.49334,2.07733 1.892,3.08133 2.076,4.11467 0.0773,0.44133 0.1,0.81066 0.10534,1.05866 0.007,0.29334 0.24666,0.528 0.54,0.528 h 0.012 c 0.3,-0.007 0.53466,-0.256 0.528,-0.55333 -0.009,-0.412 -0.0507,-0.82267 -0.12267,-1.224 -0.24533,-1.38133 -0.83733,-2.57333 -2.26,-4.55333"
       style="fill:#231f20;fill-opacity:1;fill-rule:nonzero;stroke:none;stroke-width:1.33333" />
    <path
       id="path92"
       d="m 135.83845,220.42274 c -1.008,-1.40667 -1.576,-2.04534 -1.952,-2.47067 -0.35467,-0.396 -0.516,-0.576 -0.75733,-1.07733 -0.732,-1.50934 -0.912,-3.3 -0.536,-5.31867 0.0547,-0.29333 -0.13734,-0.57733 -0.43067,-0.632 -0.29333,-0.052 -0.57467,0.13867 -0.62933,0.43333 -0.42,2.24934 -0.21067,4.26667 0.62533,5.99067 0.30533,0.63067 0.536,0.892 0.92,1.32267 0.36,0.40666 0.90667,1.02 1.88133,2.38133 1.68934,2.35467 2.388,3.74 2.66267,5.292 0.0813,0.45067 0.128,0.91067 0.13733,1.36533 0.007,0.29334 0.248,0.528 0.54134,0.528 h 0.009 c 0.3,-0.005 0.536,-0.252 0.53067,-0.552 -0.012,-0.50933 -0.0627,-1.02533 -0.15467,-1.532 -0.30667,-1.72933 -1.052,-3.228 -2.848,-5.73066"
       style="fill:#231f20;fill-opacity:1;fill-rule:nonzero;stroke:none;stroke-width:1.33333" />
    <path
       id="path93"
       d="m 141.52125,220.17607 c -0.79733,-1.11067 -1.248,-1.61867 -1.54533,-1.952 -0.27734,-0.31334 -0.39334,-0.44267 -0.57467,-0.82134 -0.56667,-1.16933 -0.70667,-2.55333 -0.41333,-4.11466 0.0547,-0.29334 -0.13734,-0.57734 -0.43067,-0.632 -0.28267,-0.056 -0.57467,0.14 -0.62933,0.43333 -0.336,1.792 -0.168,3.40533 0.5,4.78667 0.24933,0.50933 0.44266,0.73066 0.74266,1.064 0.28134,0.31733 0.708,0.79866 1.472,1.86533 1.496,2.084 1.89467,3.08533 2.076,4.11467 0.0787,0.44266 0.10134,0.81066 0.10534,1.05866 0.008,0.29334 0.24933,0.528 0.54,0.528 h 0.012 c 0.3,-0.007 0.536,-0.256 0.528,-0.55333 -0.008,-0.41067 -0.0507,-0.82267 -0.12267,-1.224 -0.24267,-1.37467 -0.836,-2.56933 -2.26,-4.55333"
       style="fill:#231f20;fill-opacity:1;fill-rule:nonzero;stroke:none;stroke-width:1.33333" />
    <path
       id="path94"
       d="m 143.87405,206.92741 c -0.0853,-2.23734 -1.20133,-4.29734 -3.07467,-5.54134 l -11,-7.336 c -0.80933,-0.54 -1.644,-0.904 -2.488,-1.084 -1.964,-0.404 -3.79466,-0.016 -5.35066,1.016 l -11.10534,7.40667 c -1.944,1.29067 -3.10533,3.45733 -3.10533,5.79733 v 15.38533 c 0,3.52 2.86533,6.38534 6.38533,6.38534 h 11.69334 c 0.29866,0 0.54,-0.24267 0.54,-0.54 0,-0.29734 -0.24134,-0.54134 -0.54,-0.54134 h -11.69334 c -2.92533,0 -5.304,-2.37866 -5.304,-5.304 v -15.38533 c 0,-1.97866 0.97867,-3.80933 2.624,-4.9 l 11.10534,-7.404 c 1.316,-0.876 2.85333,-1.20133 4.53066,-0.86 0.704,0.15067 1.41334,0.464 2.108,0.92667 l 11.00534,7.33733 c 1.572,1.044 2.512,2.77467 2.59066,4.65334 -0.63333,0.23466 -1.09066,0.832 -1.09066,1.54533 0,0.91733 0.74533,1.65867 1.66133,1.65867 0.91467,0 1.65867,-0.74134 1.65867,-1.65867 0,-0.736 -0.48667,-1.33867 -1.15067,-1.55733"
       style="fill:#231f20;fill-opacity:1;fill-rule:nonzero;stroke:none;stroke-width:1.33333" />
    <path
       id="path95"
       d="m 126.82578,288.61661 c -0.78933,0 -1.416,0.58266 -1.54933,1.33333 -0.0187,-0.003 -0.0307,-0.0187 -0.0493,-0.0187 h -11.296 c -2.82,0 -5.116,-2.296 -5.116,-5.11733 v -14.86533 c 0,-1.90667 0.94667,-3.672 2.53067,-4.724 l 10.72933,-7.16 c 1.26534,-0.84 2.716,-1.15867 4.37067,-0.82534 0.68,0.144 1.36533,0.44534 2.03467,0.892 l 10.63333,7.09334 c 1.584,1.052 2.52933,2.81733 2.52933,4.724 0,0.29333 0.236,0.532 0.532,0.532 0.29333,0 0.532,-0.23867 0.532,-0.532 0,-2.264 -1.12267,-4.36 -3.00667,-5.612 l -10.63066,-7.08934 c -0.78133,-0.52133 -1.59067,-0.876 -2.408,-1.04933 -1.96,-0.39333 -3.68,-0.0147 -5.17733,0.98267 l -10.72934,7.15733 c -1.88133,1.25067 -3.004,3.34667 -3.004,5.61067 v 14.86533 c 0,3.408 2.77334,6.18133 6.18,6.18133 h 11.296 c 0.0667,0 0.11334,-0.048 0.172,-0.0707 0.264,0.528 0.79734,0.90266 1.42667,0.90266 0.884,0 1.604,-0.72 1.604,-1.60666 0,-0.884 -0.72,-1.604 -1.604,-1.604"
       style="fill:#231f20;fill-opacity:1;fill-rule:nonzero;stroke:none;stroke-width:1.33333" />
    <path
       id="path96"
       d="m 144.49298,278.69501 h -2.928 l 1.63067,-1.96 c 0.18933,-0.22667 0.15866,-0.56267 -0.068,-0.75067 -0.22267,-0.188 -0.55867,-0.156 -0.75067,0.068 l -2.19733,2.64267 h -3.32 c 0.008,-0.0347 0.0387,-0.056 0.0387,-0.0907 v -3.812 l 2.64267,-2.19867 c 0.22667,-0.19066 0.256,-0.524 0.068,-0.75066 -0.188,-0.228 -0.524,-0.25734 -0.75067,-0.0693 l -1.96,1.63067 v -2.92667 c 0,-0.29333 -0.236,-0.532 -0.532,-0.532 -0.29333,0 -0.532,0.23867 -0.532,0.532 v 2.92667 l -1.96,-1.63067 c -0.22266,-0.188 -0.56,-0.15866 -0.75066,0.0693 -0.18667,0.22666 -0.156,0.56 0.0707,0.75066 l 2.64,2.19467 v 3.816 c 0,0.0347 0.0307,0.056 0.0387,0.0907 h -3.31733 l -2.2,-2.64267 c -0.18934,-0.224 -0.524,-0.256 -0.748,-0.068 -0.22667,0.188 -0.25734,0.524 -0.0693,0.75067 l 1.63067,1.96 h -2.92667 c -0.296,0 -0.532,0.23866 -0.532,0.532 0,0.29333 0.236,0.532 0.532,0.532 h 2.92667 l -1.63067,1.96 c -0.188,0.22666 -0.15733,0.56266 0.0693,0.75066 0.0987,0.0827 0.21866,0.124 0.34,0.124 0.15333,0 0.30266,-0.0653 0.408,-0.192 l 2.2,-2.64266 h 3.27866 v 3.28 l -2.64266,2.19866 c -0.224,0.19067 -0.25467,0.524 -0.068,0.75067 0.10666,0.12667 0.25733,0.192 0.41066,0.192 0.11867,0 0.24,-0.04 0.34,-0.124 l 1.96,-1.63067 v 2.92534 c 0,0.29333 0.23867,0.53466 0.532,0.53466 0.296,0 0.532,-0.24133 0.532,-0.53466 v -2.92667 l 1.96267,1.632 c 0.0987,0.084 0.21867,0.124 0.34,0.124 0.152,0 0.30267,-0.0653 0.408,-0.192 0.188,-0.22667 0.15867,-0.56 -0.068,-0.75067 l -2.64267,-2.19733 v -3.28133 h 3.28134 l 2.19733,2.64266 c 0.10667,0.12667 0.25733,0.192 0.41067,0.192 0.11866,0 0.24,-0.0413 0.34,-0.124 0.22666,-0.188 0.25733,-0.524 0.068,-0.75066 l -1.63067,-1.96 h 2.928 c 0.296,0 0.532,-0.23867 0.532,-0.532 0,-0.29334 -0.236,-0.532 -0.532,-0.532"
       style="fill:#231f20;fill-opacity:1;fill-rule:nonzero;stroke:none;stroke-width:1.33333" />
    <path
       id="path97"
       d="m 228.53232,205.09674 c -0.504,0.26533 -0.85733,0.77733 -0.85733,1.38533 0,0.876 0.70933,1.58667 1.584,1.58667 0.876,0 1.58533,-0.71067 1.58533,-1.58667 0,-0.74267 -0.52133,-1.33733 -1.20933,-1.50933 -0.42267,-1.65067 -1.43867,-3.10534 -2.89334,-4.072 l -11.044,-7.36534 c -0.81066,-0.54266 -1.652,-0.90933 -2.496,-1.08933 -1.96666,-0.404 -3.80133,-0.0173 -5.36933,1.02 l -11.14667,7.43733 c -1.952,1.29467 -3.116,3.46667 -3.116,5.81334 v 15.44399 c 0,3.53467 2.87467,6.40934 6.408,6.40934 h 11.73467 c 0.3,0 0.54,-0.24267 0.54,-0.54 0,-0.29734 -0.24,-0.54 -0.54,-0.54 h -11.73467 c -2.93866,0 -5.32666,-2.38934 -5.32666,-5.32934 v -15.44399 c 0,-1.984 0.98266,-3.82134 2.632,-4.916 l 11.148,-7.436 c 1.32533,-0.87867 2.86933,-1.204 4.55066,-0.86267 0.70534,0.15067 1.41734,0.46533 2.11734,0.93067 l 11.04666,7.368 c 1.18267,0.788 2.00667,1.96266 2.38667,3.296"
       style="fill:#231f20;fill-opacity:1;fill-rule:nonzero;stroke:none;stroke-width:1.33333" />
    <path
       id="path98"
       d="m 229.88978,218.07407 c -0.003,-0.003 -0.004,-0.003 -0.007,-0.004 -0.33066,-0.148 -2.23733,-1.092 -2.82,-1.38134 -0.23466,-0.50266 -0.928,-1.99066 -1.32,-2.87733 -0.30266,-0.67733 -0.62,-1.14267 -1.08533,-1.392 0.0933,0.0107 0.176,0.0547 0.27333,0.0547 1.416,0 2.568,-1.15067 2.568,-2.56667 0,-1.416 -1.152,-2.568 -2.568,-2.568 -1.416,0 -2.56666,1.152 -2.56666,2.568 0,1.01867 0.608,1.88533 1.472,2.3 -0.001,0 -0.004,-0.003 -0.005,-0.003 h -0.98933 c -0.57333,0 -0.88667,0.19334 -1.13867,0.348 l -2.83333,2.372 c -0.34533,0.196 -0.588,0.50934 -0.74,1.00934 l -0.576,3.86133 c -0.10533,0.79333 0.30133,1.40267 1.03333,1.548 0.32134,0.0747 0.67734,0 0.95867,-0.18267 0.26667,-0.172 0.45067,-0.44 0.51867,-0.75866 0.06,-0.29867 0.456,-2.60134 0.58,-3.31334 l 0.42133,-0.32133 c -0.172,0.83067 -0.31867,1.55733 -0.37867,1.87867 -0.184,0.94666 0.2,1.66533 0.536,2.188 -0.11733,-0.12667 -0.27866,-0.20534 -0.45733,-0.184 -0.212,0.032 -0.38667,0.184 -0.44533,0.388 l -0.78267,2.76133 c -0.28533,0.412 -1.68533,2.436 -2.10533,3.04667 -0.88267,1.29199 -0.31467,2.01733 0.10666,2.33199 0.28267,0.21734 0.55467,0.29734 0.80534,0.29734 0.68133,0 1.224,-0.612 1.49066,-0.91734 0.204,-0.23066 0.72,-0.93066 1.22,-1.60933 0.33334,-0.45333 0.644,-0.87333 0.79734,-1.06533 0.244,-0.31333 0.416,-0.612 0.56666,-0.976 0.0667,-0.17733 0.24667,-0.66133 0.41867,-1.13467 0.056,-0.15333 0.0387,-0.32533 -0.0493,-0.46666 l -0.51734,-0.83734 c 1.69867,2.65734 3.524,5.504 3.888,5.98 0.23467,0.30533 0.76534,0.99333 1.568,0.99333 0.25467,0 0.536,-0.0707 0.844,-0.24133 0.336,-0.188 0.564,-0.48 0.66267,-0.84133 0.13067,-0.47734 0.0253,-1.06 -0.28667,-1.592 -0.308,-0.52667 -3.544,-5.792 -4.216,-6.88667 l 0.34134,-1.46666 v 0.001 c 0.19466,0.296 0.41066,0.41333 0.73866,0.59333 0.45334,0.24934 2.71334,1.27067 2.74,1.28 0.89734,0.39867 1.664,0.26 2.00667,-0.356 0.168,-0.29733 0.20133,-0.65066 0.0933,-0.98666 -0.12,-0.37867 -0.41333,-0.712 -0.76133,-0.872 m -4.95867,-9.65334 c 0.82,0 1.48667,0.66534 1.48667,1.48667 0,0.82133 -0.66667,1.48667 -1.48667,1.48667 -0.81866,0 -1.48666,-0.66534 -1.48666,-1.48667 0,-0.82133 0.668,-1.48667 1.48666,-1.48667 m -3.51733,16.088 c -0.08,0.19467 -0.18267,0.41334 -0.40933,0.70267 -0.156,0.196 -0.47467,0.63067 -0.81867,1.096 -0.44,0.59733 -0.988,1.34 -1.19867,1.57866 -0.52,0.588 -0.63466,0.556 -0.79866,0.43334 -0.11867,-0.092 -0.3,-0.22534 0.136,-0.86 0.46666,-0.68267 2.152,-3.11733 2.152,-3.11733 0.0347,-0.0493 0.0613,-0.104 0.0773,-0.16267 l 0.47333,-1.66933 0.70534,1.14133 c -0.13867,0.376 -0.26667,0.72267 -0.31867,0.85733 m 8.19467,-5.09733 c -0.0307,0.0227 -0.24667,0.0547 -0.61867,-0.10667 -0.72667,-0.33066 -2.33467,-1.06533 -2.65867,-1.24266 -0.29466,-0.16134 -0.31733,-0.18267 -0.34933,-0.23334 -0.24267,-0.38 -0.71467,-1.052 -0.71467,-1.052 -0.124,-0.17333 -0.328,-0.25866 -0.54666,-0.22 -0.208,0.04 -0.37334,0.2 -0.42267,0.40934 l -0.66667,2.888 c -0.0333,0.14 -0.0107,0.28533 0.064,0.40533 0.04,0.064 3.98934,6.488 4.31867,7.052 0.16,0.27333 0.23067,0.572 0.17867,0.76266 -0.0227,0.0827 -0.0667,0.13734 -0.148,0.184 -0.29734,0.16534 -0.49067,0.22667 -1.02934,-0.46933 -0.368,-0.48 -2.65866,-4.06 -3.88666,-5.984 -0.45467,-0.71066 -0.78667,-1.228 -0.868,-1.352 -0.29867,-0.44933 -0.63867,-0.956 -0.51334,-1.60133 0.0947,-0.496 0.38667,-1.95733 0.676,-3.28933 0.048,-0.22134 -0.0493,-0.44934 -0.23866,-0.56934 -0.0893,-0.056 -0.188,-0.0853 -0.28934,-0.0853 -0.116,0 -0.23333,0.0387 -0.33066,0.112 l -1.74534,1.34133 c -0.10666,0.0827 -0.18,0.20267 -0.204,0.33734 0,0 -0.53866,3.14266 -0.656,3.55733 -0.048,0.032 -0.11866,0.0413 -0.15333,0.032 -0.12,-0.024 -0.22267,-0.044 -0.184,-0.34 l 0.556,-3.76933 c 0.0627,-0.2 0.152,-0.27334 0.30933,-0.37334 l 2.592,-2.21733 0.18934,-0.11333 c 0.20266,-0.124 0.30666,-0.188 0.57333,-0.188 h 0.98933 c 0.30934,0 0.49734,0 0.924,0.964 0.48,1.08533 1.41067,3.068 1.41067,3.068 0.052,0.108 0.13867,0.2 0.248,0.252 0,0 2.608,1.29733 3.02267,1.48533 0.0667,0.028 0.15333,0.11467 0.18666,0.21867 z"
       style="fill:#231f20;fill-opacity:1;fill-rule:nonzero;stroke:none;stroke-width:1.33333" />
    <path
       id="path99"
       d="m 227.65232,264.15487 -11.36133,-7.576 -0.10534,-0.0707 c -0.71866,-0.47733 -1.49066,-0.80133 -2.30666,-0.99733 -0.0507,-0.012 -0.0987,-0.0387 -0.14934,-0.0493 -0.004,0 -0.008,0 -0.012,-0.001 -0.44666,-0.096 -0.90666,-0.14133 -1.38133,-0.148 -0.0347,0 -0.0707,-0.008 -0.108,-0.0107 -0.13867,0.003 -0.28933,0.0333 -0.432,0.0413 -0.36133,0.02 -0.72133,0.0427 -1.06667,0.11466 -0.0187,0.004 -0.0347,0.003 -0.0547,0.007 -0.168,0.036 -0.33334,0.11333 -0.50134,0.16133 -0.25733,0.0787 -0.52,0.144 -0.76666,0.24934 -0.128,0.056 -0.24934,0.13866 -0.37734,0.20133 -0.268,0.136 -0.544,0.26 -0.8,0.432 l -0.0973,0.064 -0.012,0.007 c 0,0 0,0.001 -0.003,0.001 l -11.35466,7.57467 c -2.00134,1.32933 -3.19467,3.55866 -3.19467,5.964 v 15.88533 c 0,3.61866 2.94667,6.564 6.568,6.564 h 24.14133 c 3.62,0 6.56667,-2.94534 6.56667,-6.564 v -15.88533 c 0,-2.40534 -1.19333,-4.63467 -3.192,-5.964 m 2.12667,21.84933 c 0,3.032 -2.468,5.5 -5.50134,5.5 h -24.14133 c -3.036,0 -5.50267,-2.468 -5.50267,-5.5 v -15.88533 c 0,-2.04934 1.016,-3.94667 2.71734,-5.07734 l 11.36133,-7.57733 h 0.003 c 0.28133,-0.18933 0.56666,-0.33333 0.85333,-0.47333 0.0853,-0.0427 0.164,-0.0973 0.24933,-0.13334 0.22,-0.0973 0.44,-0.152 0.66134,-0.216 0.15333,-0.0467 0.30266,-0.108 0.46266,-0.14133 0.35067,-0.0667 0.688,-0.096 1.02134,-0.10933 0.0813,-0.004 0.15866,-0.0227 0.24133,-0.0227 0.12,0 0.228,0.024 0.34533,0.0307 0.304,0.0173 0.60934,0.0387 0.92534,0.10133 0.13333,0.028 0.25866,0.08 0.39066,0.11867 0.24667,0.0707 0.49334,0.13333 0.74,0.24133 0.044,0.02 0.0853,0.0507 0.12934,0.0707 0.324,0.14933 0.648,0.32 0.96533,0.53333 l 11.36133,7.57733 c 1.704,1.13067 2.71734,3.028 2.71734,5.07734 z"
       style="fill:#231f20;fill-opacity:1;fill-rule:nonzero;stroke:none;stroke-width:1.33333" />
    <path
       id="path100"
       d="m 215.55245,268.69794 c -0.524,-0.22 -1.07867,-0.33334 -1.65067,-0.33334 h -1.11866 c 1.368,-0.29333 2.39733,-1.50933 2.39733,-2.96666 0,-1.672 -1.36133,-3.036 -3.03733,-3.036 -1.67467,0 -3.036,1.364 -3.036,3.036 0,1.45733 1.02933,2.67333 2.39466,2.96666 h -0.73333 c -0.57333,0 -1.128,0.11334 -1.65067,0.33334 -0.116,0.048 -0.19466,0.14133 -0.252,0.24933 -0.35733,0.388 -1.81866,2.04667 -1.81866,3.44267 v 4.91866 c 0,0.772 0.632,1.404 1.404,1.404 0.12,0 0.22933,-0.0413 0.34266,-0.0693 v 7.95466 c 0,1.00267 0.81734,1.82 1.82,1.82 0.82534,0 1.49734,-0.56 1.72,-1.312 0.224,0.752 0.896,1.312 1.72,1.312 1.00534,0 1.82267,-0.81733 1.82267,-1.82 v -7.95333 c 0.12533,0.0373 0.248,0.0773 0.38267,0.0773 0.77466,0 1.404,-0.63066 1.404,-1.40533 v -4.916 c 0,-1.39066 -1.47734,-3.03866 -1.856,-3.44 -0.0547,-0.11333 -0.13467,-0.212 -0.25467,-0.26266 m -5.38133,-3.3 c 0,-1.088 0.884,-1.97067 1.972,-1.97067 1.08666,0 1.97333,0.88267 1.97333,1.97067 0,1.08666 -0.88667,1.97333 -1.97333,1.97333 -1.088,0 -1.972,-0.88667 -1.972,-1.97333 m -1.72,12.24799 c -0.18534,0 -0.33734,-0.15199 -0.33734,-0.33733 v -4.91866 c 0,-0.45067 0.304,-1.06267 0.68,-1.628 v 6.57866 c 0,0.144 -0.14533,0.30533 -0.34266,0.30533 m 5.60266,9.708 c -0.41866,0 -0.75733,-0.33733 -0.75733,-0.756 v -7.752 c 0,-0.53066 -0.432,-0.95866 -0.96267,-0.95866 -0.53066,0 -0.96133,0.428 -0.96133,0.95866 v 7.752 c 0,0.41867 -0.34,0.756 -0.75867,0.756 -0.41866,0 -0.756,-0.33733 -0.756,-0.756 v -9.25733 -7.77866 c 0.29334,-0.0893 0.59867,-0.132 0.91067,-0.132 h 3.13333 c 0.312,0 0.61734,0.0427 0.91067,0.132 v 17.03599 c 0,0.41867 -0.34,0.756 -0.75867,0.756 m 2.544,-10.03733 c 0,0.188 -0.15066,0.34133 -0.33866,0.34133 -0.19734,0 -0.36534,-0.17199 -0.38267,-0.34133 v -6.57733 c 0.38267,0.552 0.72133,1.18133 0.72133,1.66133 z"
       style="fill:#231f20;fill-opacity:1;fill-rule:nonzero;stroke:none;stroke-width:1.33333" />
    <path
       id="path101"
       d="m 401.94965,195.33274 h -3.08667 -30.036 -3.088 c -0.29333,0 -0.532,0.23866 -0.532,0.532 0,0.29333 0.23867,0.532 0.532,0.532 h 2.556 v 24.09999 c 0,3.10134 2.396,5.62534 5.43067,5.884 0.0307,0.005 0.0507,0.0347 0.0813,0.0347 0.02,0 0.032,-0.0187 0.0507,-0.0213 0.12533,0.008 0.24267,0.0373 0.37067,0.0373 h 19.232 c 3.272,0 5.93466,-2.66133 5.93466,-5.93467 v -24.09999 h 2.55467 c 0.296,0 0.532,-0.23867 0.532,-0.532 0,-0.29334 -0.236,-0.532 -0.532,-0.532 m -32.59067,25.16399 v -24.09999 h 3.916 v 28.87466 c -2.22933,-0.44533 -3.916,-2.41467 -3.916,-4.77467 m 28.972,0 c 0,2.68534 -2.18533,4.87067 -4.87066,4.87067 h -19.11867 v -28.97066 h 23.98933 z"
       style="fill:#231f20;fill-opacity:1;fill-rule:nonzero;stroke:none;stroke-width:1.33333" />
    <path
       id="path102"
       d="m 376.10725,211.65821 c 0.53467,0 0.96933,-0.43334 0.96933,-0.96934 0,-0.53333 -0.43466,-0.96666 -0.96933,-0.96666 -0.53467,0 -0.96933,0.43333 -0.96933,0.96666 0,0.536 0.43466,0.96934 0.96933,0.96934"
       style="fill:#231f20;fill-opacity:1;fill-rule:nonzero;stroke:none;stroke-width:1.33333" />
    <path
       id="path103"
       d="m 401.94965,258.38607 h -3.08667 -30.036 -3.088 c -0.29333,0 -0.532,0.23866 -0.532,0.532 0,0.29333 0.23867,0.532 0.532,0.532 h 2.556 v 24.10266 c 0,3.27067 2.66134,5.93333 5.93334,5.93333 h 19.232 c 0.128,0 0.24533,-0.0307 0.37066,-0.0387 0.0187,0.003 0.0307,0.0227 0.0507,0.0227 0.032,0 0.0533,-0.0307 0.0827,-0.0347 3.03333,-0.26 5.43066,-2.784 5.43066,-5.88267 v -24.10266 h 2.55467 c 0.296,0 0.532,-0.23867 0.532,-0.532 0,-0.29334 -0.236,-0.532 -0.532,-0.532 m -32.59067,25.16666 v -24.10266 h 23.99067 v 28.97199 h -19.12133 c -2.68534,0 -4.86934,-2.18666 -4.86934,-4.86933 m 28.972,0 c 0,2.35733 -1.688,4.32667 -3.91733,4.772 v -28.87466 h 3.91733 z"
       style="fill:#231f20;fill-opacity:1;fill-rule:nonzero;stroke:none;stroke-width:1.33333" />
    <path
       id="path104"
       d="m 391.58152,272.77501 c -0.53467,0 -0.96933,0.43333 -0.96933,0.96933 0,0.53333 0.43466,0.96667 0.96933,0.96667 0.53467,0 0.96933,-0.43334 0.96933,-0.96667 0,-0.536 -0.43466,-0.96933 -0.96933,-0.96933"
       style="fill:#231f20;fill-opacity:1;fill-rule:nonzero;stroke:none;stroke-width:1.33333" />
    <path
       id="path105"
       d="m 488.77872,258.38607 h -3.08667 -30.036 -3.088 c -0.29333,0 -0.532,0.23866 -0.532,0.532 0,0.29333 0.23867,0.532 0.532,0.532 h 2.556 v 24.10266 c 0,3.27067 2.66134,5.93333 5.93334,5.93333 h 19.232 c 3.272,0 5.93466,-2.66266 5.93466,-5.93333 v -24.10266 h 2.55467 c 0.29333,0 0.532,-0.23867 0.532,-0.532 0,-0.29334 -0.23867,-0.532 -0.532,-0.532 m -3.61867,25.16666 c 0,2.68267 -2.18533,4.86933 -4.87066,4.86933 h -19.232 c -2.68534,0 -4.86934,-2.18666 -4.86934,-4.86933 v -24.10266 h 28.972 z"
       style="fill:#231f20;fill-opacity:1;fill-rule:nonzero;stroke:none;stroke-width:1.33333" />
    <path
       id="path106"
       d="m 470.56725,285.70141 c -0.53467,0 -0.96933,0.43333 -0.96933,0.96933 0,0.53333 0.43466,0.96667 0.96933,0.96667 0.53467,0 0.96933,-0.43334 0.96933,-0.96667 0,-0.536 -0.43466,-0.96933 -0.96933,-0.96933"
       style="fill:#231f20;fill-opacity:1;fill-rule:nonzero;stroke:none;stroke-width:1.33333" />
    <path
       id="path107"
       d="m 457.37698,265.35954 h 26.648 c 0.29333,0 0.532,-0.23867 0.532,-0.532 v -2.97334 c 0,-0.29333 -0.23867,-0.53333 -0.532,-0.53333 h -26.648 c -0.29333,0 -0.532,0.24 -0.532,0.53333 v 2.97334 c 0,0.29333 0.23867,0.532 0.532,0.532 m 0.532,-2.97334 h 25.584 v 1.908 h -25.584 z"
       style="fill:#231f20;fill-opacity:1;fill-rule:nonzero;stroke:none;stroke-width:1.33333" />
    <path
       id="path108"
       d="m 457.37698,269.88594 h 26.648 c 0.29333,0 0.532,-0.23867 0.532,-0.532 v -2.976 c 0,-0.29334 -0.23867,-0.532 -0.532,-0.532 h -26.648 c -0.29333,0 -0.532,0.23866 -0.532,0.532 v 2.976 c 0,0.29333 0.23867,0.532 0.532,0.532 m 0.532,-2.976 h 25.584 v 1.912 h -25.584 z"
       style="fill:#231f20;fill-opacity:1;fill-rule:nonzero;stroke:none;stroke-width:1.33333" />
    <path
       id="path109"
       d="m 457.37698,274.92754 h 26.648 c 0.29333,0 0.532,-0.23867 0.532,-0.532 v -2.97334 c 0,-0.29333 -0.23867,-0.532 -0.532,-0.532 h -26.648 c -0.29333,0 -0.532,0.23867 -0.532,0.532 v 2.97334 c 0,0.29333 0.23867,0.532 0.532,0.532 m 0.532,-2.97334 h 25.584 v 1.908 h -25.584 z"
       style="fill:#231f20;fill-opacity:1;fill-rule:nonzero;stroke:none;stroke-width:1.33333" />
    <path
       id="path110"
       d="m 457.37698,279.45407 h 26.648 c 0.29333,0 0.532,-0.23867 0.532,-0.532 v -2.976 c 0,-0.29334 -0.23867,-0.532 -0.532,-0.532 h -26.648 c -0.29333,0 -0.532,0.23866 -0.532,0.532 v 2.976 c 0,0.29333 0.23867,0.532 0.532,0.532 m 0.532,-2.976 h 25.584 v 1.912 h -25.584 z"
       style="fill:#231f20;fill-opacity:1;fill-rule:nonzero;stroke:none;stroke-width:1.33333" />
    <path
       id="path111"
       d="m 457.37698,284.50034 h 26.648 c 0.29333,0 0.532,-0.23867 0.532,-0.532 v -2.976 c 0,-0.29334 -0.23867,-0.532 -0.532,-0.532 h -26.648 c -0.29333,0 -0.532,0.23866 -0.532,0.532 v 2.976 c 0,0.29333 0.23867,0.532 0.532,0.532 m 0.532,-2.976 h 25.584 v 1.90933 h -25.584 z"
       style="fill:#231f20;fill-opacity:1;fill-rule:nonzero;stroke:none;stroke-width:1.33333" />
    <path
       id="path112"
       d="m 488.77872,195.33274 h -3.08667 -30.036 -3.088 c -0.29333,0 -0.532,0.23866 -0.532,0.532 0,0.29333 0.23867,0.532 0.532,0.532 h 2.556 v 24.10266 c 0,3.27067 2.66134,5.93333 5.93334,5.93333 h 19.232 c 3.272,0 5.93466,-2.66266 5.93466,-5.93333 v -24.10266 h 2.55467 c 0.29333,0 0.532,-0.23867 0.532,-0.532 0,-0.29334 -0.23867,-0.532 -0.532,-0.532 m -8.48933,30.03599 h -19.232 c -1.66,0 -3.124,-0.84 -4.004,-2.10933 0.0907,0.072 0.196,0.13333 0.324,0.13333 h 26.64533 c 0.0947,0 0.16533,-0.0573 0.24267,-0.10133 -0.88267,1.252 -2.33067,2.07733 -3.976,2.07733 m -22.38,-3.392 h 25.58133 v 0.352 h -25.58133 z m 27.25066,-1.47733 c 0,0.836 -0.23333,1.61067 -0.60533,2.29867 v -1.35334 c 0,-0.29333 -0.23733,-0.532 -0.532,-0.532 h -26.64533 c -0.296,0 -0.53467,0.23867 -0.53467,0.532 v 1.416 c 0,0.0547 0.0453,0.0907 0.0587,0.13867 -0.44267,-0.73333 -0.71334,-1.584 -0.71334,-2.5 v -24.10266 h 28.972 z"
       style="fill:#231f20;fill-opacity:1;fill-rule:nonzero;stroke:none;stroke-width:1.33333" />
    <path
       id="path113"
       d="m 470.56725,199.76861 c 0.53467,0 0.96933,-0.43334 0.96933,-0.96934 0,-0.53333 -0.43466,-0.96666 -0.96933,-0.96666 -0.53467,0 -0.96933,0.43333 -0.96933,0.96666 0,0.536 0.43466,0.96934 0.96933,0.96934"
       style="fill:#231f20;fill-opacity:1;fill-rule:nonzero;stroke:none;stroke-width:1.33333" />
    <path
       id="path114"
       d="m 457.37698,203.05887 h 26.648 c 0.29333,0 0.532,-0.23867 0.532,-0.532 v -1.416 c 0,-0.29334 -0.23867,-0.532 -0.532,-0.532 h -26.648 c -0.29333,0 -0.532,0.23866 -0.532,0.532 v 1.416 c 0,0.29333 0.23867,0.532 0.532,0.532 m 0.532,-1.416 h 25.58133 v 0.352 h -25.58133 z"
       style="fill:#231f20;fill-opacity:1;fill-rule:nonzero;stroke:none;stroke-width:1.33333" />
    <path
       id="path115"
       d="m 457.37698,207.98447 h 26.648 c 0.29333,0 0.532,-0.23867 0.532,-0.532 v -1.416 c 0,-0.29334 -0.23867,-0.532 -0.532,-0.532 h -26.648 c -0.29333,0 -0.532,0.23866 -0.532,0.532 v 1.416 c 0,0.29333 0.23867,0.532 0.532,0.532 m 0.532,-1.416 h 25.58133 v 0.352 h -25.58133 z"
       style="fill:#231f20;fill-opacity:1;fill-rule:nonzero;stroke:none;stroke-width:1.33333" />
    <path
       id="path116"
       d="m 457.37698,213.05341 h 26.648 c 0.29333,0 0.532,-0.23867 0.532,-0.532 v -1.416 c 0,-0.29334 -0.23867,-0.532 -0.532,-0.532 h -26.648 c -0.29333,0 -0.532,0.23866 -0.532,0.532 v 1.416 c 0,0.29333 0.23867,0.532 0.532,0.532 m 0.532,-1.416 h 25.58133 v 0.352 h -25.58133 z"
       style="fill:#231f20;fill-opacity:1;fill-rule:nonzero;stroke:none;stroke-width:1.33333" />
    <path
       id="path117"
       d="m 457.37698,217.98114 h 26.648 c 0.29333,0 0.532,-0.23867 0.532,-0.532 v -1.416 c 0,-0.29334 -0.23867,-0.532 -0.532,-0.532 h -26.648 c -0.29333,0 -0.532,0.23866 -0.532,0.532 v 1.416 c 0,0.29333 0.23867,0.532 0.532,0.532 m 0.532,-1.416 h 25.58133 v 0.352 h -25.58133 z"
       style="fill:#231f20;fill-opacity:1;fill-rule:nonzero;stroke:none;stroke-width:1.33333" />
    <path
       id="path118"
       d="m 558.78618,255.56234 c -0.28667,-0.0733 -0.57467,0.10666 -0.64133,0.39466 -0.0693,0.28534 0.10666,0.572 0.39466,0.64134 7.94,1.89333 13.48533,8.92133 13.48533,17.09066 0,9.688 -7.884,17.572 -17.57466,17.572 -9.688,0 -17.572,-7.884 -17.572,-17.572 0,-8.16933 5.54533,-15.19733 13.48667,-17.09066 0.284,-0.0693 0.46266,-0.356 0.39333,-0.64134 -0.068,-0.288 -0.34933,-0.468 -0.64133,-0.39466 -8.42134,2.00933 -14.30267,9.46133 -14.30267,18.12666 0,10.27733 8.36,18.636 18.636,18.636 10.27733,0 18.63866,-8.35867 18.63866,-18.636 0,-8.66533 -5.88266,-16.11733 -14.30266,-18.12666"
       style="fill:#231f20;fill-opacity:1;fill-rule:nonzero;stroke:none;stroke-width:1.33333" />
    <path
       id="path119"
       d="m 554.45072,273.46287 c 1.28,0 2.31867,-1.03734 2.31867,-2.31867 0,-1.092 -0.77067,-1.964 -1.78667,-2.21067 v -12.852 c 0,-0.29466 -0.23867,-0.53466 -0.532,-0.53466 -0.29467,0 -0.532,0.24 -0.532,0.53466 v 12.852 c -1.016,0.24667 -1.78667,1.11867 -1.78667,2.21067 0,1.28133 1.03867,2.31867 2.31867,2.31867"
       style="fill:#231f20;fill-opacity:1;fill-rule:nonzero;stroke:none;stroke-width:1.33333" />
    <path
       id="path120"
       d="m 557.29725,220.13821 c 0,-1.29867 -1.05333,-2.35334 -2.35333,-2.35334 -1.29867,0 -2.352,1.05467 -2.352,2.35334 0,1.29866 1.05333,2.35333 2.352,2.35333 1.3,0 2.35333,-1.05467 2.35333,-2.35333"
       style="fill:#231f20;fill-opacity:1;fill-rule:nonzero;stroke:none;stroke-width:1.33333" />
    <path
       id="path121"
       d="m 567.42445,205.83127 c 1.08267,0 1.96,0.88 1.96,1.96266 v 18.75333 c 0,1.08267 -0.87733,1.96267 -1.96,1.96267 h -24.96 c -1.08,0 -1.96,-0.88 -1.96,-1.96267 v -20.71599 z m 0,-1.012 h -27.932 v 21.72799 c 0,1.64267 1.33067,2.97334 2.972,2.97334 h 24.96 c 1.64267,0 2.972,-1.33067 2.972,-2.97334 v -18.75333 c 0,-1.64266 -1.32933,-2.97466 -2.972,-2.97466"
       style="fill:#231f20;fill-opacity:1;fill-rule:nonzero;stroke:none;stroke-width:1.33333" />
    <path
       id="path122"
       d="m 566.59098,193.25701 c 0.66133,0 1.228,0.47333 1.34933,1.12533 l 0.688,3.72133 c 0.13734,0.74667 -0.356,1.46534 -1.1,1.60267 l -27.05066,5.00266 -0.93867,-5.07599 c -0.0667,-0.36 0.009,-0.72534 0.21867,-1.02667 0.208,-0.304 0.52133,-0.50667 0.88133,-0.57333 l 25.69867,-4.752 c 0.0853,-0.016 0.17066,-0.024 0.25333,-0.024 m 0,-1.012 c -0.144,0 -0.28933,0.012 -0.43733,0.0413 l -25.69867,4.752 c -1.29467,0.24 -2.15067,1.484 -1.912,2.78 l 1.12267,6.068 28.044,-5.184 c 1.29733,-0.24133 2.15199,-1.48533 1.91333,-2.78 l -0.68933,-3.724 c -0.212,-1.14933 -1.216,-1.95333 -2.34267,-1.95333"
       style="fill:#231f20;fill-opacity:1;fill-rule:nonzero;stroke:none;stroke-width:1.33333" />
    <path
       id="path123"
       d="m 539.48977,213.47274 h 30.90666 v -1.00934 h -30.90666 z"
       style="fill:#231f20;fill-opacity:1;fill-rule:nonzero;stroke:none;stroke-width:1.33333" />
    <path
       id="path124"
       d="m 801.09832,213.55714 c -1.08667,0 -1.97067,0.884 -1.97067,1.97066 0,1.084 0.884,1.968 1.97067,1.968 1.08667,0 1.97067,-0.884 1.97067,-1.968 0,-1.08666 -0.884,-1.97066 -1.97067,-1.97066"
       style="fill:#231f20;fill-opacity:1;fill-rule:nonzero;stroke:none;stroke-width:1.33333" />
    <path
       id="path125"
       d="m 804.43018,209.34634 c -1.08667,0 -1.97067,0.884 -1.97067,1.97066 0,1.08667 0.884,1.97067 1.97067,1.97067 1.08667,0 1.97067,-0.884 1.97067,-1.97067 0,-1.08666 -0.884,-1.97066 -1.97067,-1.97066"
       style="fill:#231f20;fill-opacity:1;fill-rule:nonzero;stroke:none;stroke-width:1.33333" />
    <path
       id="path126"
       d="m 807.60632,205.00807 c -1.08667,0 -1.97067,0.884 -1.97067,1.97066 0,1.08667 0.884,1.97067 1.97067,1.97067 1.08667,0 1.97067,-0.884 1.97067,-1.97067 0,-1.08666 -0.884,-1.97066 -1.97067,-1.97066"
       style="fill:#231f20;fill-opacity:1;fill-rule:nonzero;stroke:none;stroke-width:1.33333" />
    <path
       id="path127"
       d="m 821.24152,213.55714 c -1.08667,0 -1.97067,0.884 -1.97067,1.97066 0,1.084 0.884,1.968 1.97067,1.968 1.08667,0 1.97067,-0.884 1.97067,-1.968 0,-1.08666 -0.884,-1.97066 -1.97067,-1.97066"
       style="fill:#231f20;fill-opacity:1;fill-rule:nonzero;stroke:none;stroke-width:1.33333" />
    <path
       id="path128"
       d="m 819.88205,211.31741 c 0,-1.08667 -0.884,-1.97067 -1.97067,-1.97067 -1.08666,0 -1.97066,0.884 -1.97066,1.97067 0,1.08666 0.884,1.97066 1.97066,1.97066 1.08667,0 1.97067,-0.884 1.97067,-1.97066"
       style="fill:#231f20;fill-opacity:1;fill-rule:nonzero;stroke:none;stroke-width:1.33333" />
    <path
       id="path129"
       d="m 816.70392,206.97781 c 0,-1.08667 -0.884,-1.97067 -1.97067,-1.97067 -1.08666,0 -1.97066,0.884 -1.97066,1.97067 0,1.08666 0.884,1.97066 1.97066,1.97066 1.08667,0 1.97067,-0.884 1.97067,-1.97066"
       style="fill:#231f20;fill-opacity:1;fill-rule:nonzero;stroke:none;stroke-width:1.33333" />
    <path
       id="path130"
       d="m 810.85938,201.13394 c -1.08667,0 -1.97067,0.884 -1.97067,1.97066 0,1.08667 0.884,1.97067 1.97067,1.97067 1.08667,0 1.97067,-0.884 1.97067,-1.97067 0,-1.08666 -0.884,-1.97066 -1.97067,-1.97066"
       style="fill:#231f20;fill-opacity:1;fill-rule:nonzero;stroke:none;stroke-width:1.33333" />
    <path
       id="path131"
       d="m 821.24365,266.20981 c -1.08667,0 -1.97067,0.884 -1.97067,1.97066 0,1.08667 0.884,1.97067 1.97067,1.97067 1.08667,0 1.97067,-0.884 1.97067,-1.97067 0,-1.08666 -0.884,-1.97066 -1.97067,-1.97066"
       style="fill:#231f20;fill-opacity:1;fill-rule:nonzero;stroke:none;stroke-width:1.33333" />
    <path
       id="path132"
       d="m 817.91165,270.41981 c -1.08667,0 -1.97067,0.884 -1.97067,1.97066 0,1.08667 0.884,1.97067 1.97067,1.97067 1.08667,0 1.97067,-0.884 1.97067,-1.97067 0,-1.08666 -0.884,-1.97066 -1.97067,-1.97066"
       style="fill:#231f20;fill-opacity:1;fill-rule:nonzero;stroke:none;stroke-width:1.33333" />
    <path
       id="path133"
       d="m 814.73352,274.75967 c -1.08667,0 -1.97067,0.884 -1.97067,1.97066 0,1.08667 0.884,1.97067 1.97067,1.97067 1.08667,0 1.97067,-0.884 1.97067,-1.97067 0,-1.08666 -0.884,-1.97066 -1.97067,-1.97066"
       style="fill:#231f20;fill-opacity:1;fill-rule:nonzero;stroke:none;stroke-width:1.33333" />
    <path
       id="path134"
       d="m 803.06858,268.17981 c 0,-1.08667 -0.884,-1.97067 -1.97067,-1.97067 -1.08666,0 -1.97066,0.884 -1.97066,1.97067 0,1.08666 0.884,1.97066 1.97066,1.97066 1.08667,0 1.97067,-0.884 1.97067,-1.97066"
       style="fill:#231f20;fill-opacity:1;fill-rule:nonzero;stroke:none;stroke-width:1.33333" />
    <path
       id="path135"
       d="m 806.39858,272.39087 c 0,-1.08667 -0.884,-1.97067 -1.97067,-1.97067 -1.08666,0 -1.968,0.884 -1.968,1.97067 0,1.08666 0.88134,1.97066 1.968,1.97066 1.08667,0 1.97067,-0.884 1.97067,-1.97066"
       style="fill:#231f20;fill-opacity:1;fill-rule:nonzero;stroke:none;stroke-width:1.33333" />
    <path
       id="path136"
       d="m 807.60632,274.75967 c -1.08667,0 -1.97067,0.884 -1.97067,1.97066 0,1.08667 0.884,1.97067 1.97067,1.97067 1.08667,0 1.97067,-0.884 1.97067,-1.97067 0,-1.08666 -0.884,-1.97066 -1.97067,-1.97066"
       style="fill:#231f20;fill-opacity:1;fill-rule:nonzero;stroke:none;stroke-width:1.33333" />
    <path
       id="path137"
       d="m 811.48045,278.63354 c -1.08667,0 -1.97067,0.884 -1.97067,1.97066 0,1.08667 0.884,1.968 1.97067,1.968 1.08667,0 1.97067,-0.88133 1.97067,-1.968 0,-1.08666 -0.884,-1.97066 -1.97067,-1.97066"
       style="fill:#231f20;fill-opacity:1;fill-rule:nonzero;stroke:none;stroke-width:1.33333" />
    <path
       id="path138"
       d="m 721.18192,262.34901 c -1.08667,0 -1.97067,0.884 -1.97067,1.97066 0,1.08667 0.884,1.968 1.97067,1.968 1.08667,0 1.97067,-0.88133 1.97067,-1.968 0,-1.08666 -0.884,-1.97066 -1.97067,-1.97066"
       style="fill:#231f20;fill-opacity:1;fill-rule:nonzero;stroke:none;stroke-width:1.33333" />
    <path
       id="path139"
       d="m 725.39192,265.68061 c -1.08667,0 -1.97067,0.884 -1.97067,1.97066 0,1.08667 0.884,1.97067 1.97067,1.97067 1.08667,0 1.97067,-0.884 1.97067,-1.97067 0,-1.08666 -0.884,-1.97066 -1.97067,-1.97066"
       style="fill:#231f20;fill-opacity:1;fill-rule:nonzero;stroke:none;stroke-width:1.33333" />
    <path
       id="path140"
       d="m 729.73125,272.79847 c 1.08667,0 1.97067,-0.884 1.97067,-1.97067 0,-1.08667 -0.884,-1.97067 -1.97067,-1.97067 -1.08667,0 -1.97067,0.884 -1.97067,1.97067 0,1.08667 0.884,1.97067 1.97067,1.97067"
       style="fill:#231f20;fill-opacity:1;fill-rule:nonzero;stroke:none;stroke-width:1.33333" />
    <path
       id="path141"
       d="m 721.18192,282.49354 c -1.08667,0 -1.97067,0.884 -1.97067,1.97066 0,1.08667 0.884,1.97067 1.97067,1.97067 1.08667,0 1.97067,-0.884 1.97067,-1.97067 0,-1.08666 -0.884,-1.97066 -1.97067,-1.97066"
       style="fill:#231f20;fill-opacity:1;fill-rule:nonzero;stroke:none;stroke-width:1.33333" />
    <path
       id="path142"
       d="m 725.39192,279.16154 c -1.08667,0 -1.97067,0.884 -1.97067,1.97066 0,1.08667 0.884,1.97067 1.97067,1.97067 1.08667,0 1.97067,-0.884 1.97067,-1.97067 0,-1.08666 -0.884,-1.97066 -1.97067,-1.97066"
       style="fill:#231f20;fill-opacity:1;fill-rule:nonzero;stroke:none;stroke-width:1.33333" />
    <path
       id="path143"
       d="m 729.73125,275.98501 c -1.08667,0 -1.97067,0.884 -1.97067,1.97066 0,1.08667 0.884,1.97067 1.97067,1.97067 1.08667,0 1.97067,-0.884 1.97067,-1.97067 0,-1.08666 -0.884,-1.97066 -1.97067,-1.97066"
       style="fill:#231f20;fill-opacity:1;fill-rule:nonzero;stroke:none;stroke-width:1.33333" />
    <path
       id="path144"
       d="m 733.60538,272.11101 c -1.08667,0 -1.97067,0.884 -1.97067,1.97066 0,1.08667 0.884,1.97067 1.97067,1.97067 1.08667,0 1.97067,-0.884 1.97067,-1.97067 0,-1.08666 -0.884,-1.97066 -1.97067,-1.97066"
       style="fill:#231f20;fill-opacity:1;fill-rule:nonzero;stroke:none;stroke-width:1.33333" />
    <path
       id="path145"
       d="m 733.60538,217.41727 c -1.08667,0 -1.97067,0.884 -1.97067,1.97066 0,1.08667 0.884,1.97067 1.97067,1.97067 1.08667,0 1.97067,-0.884 1.97067,-1.97067 0,-1.08666 -0.884,-1.97066 -1.97067,-1.97066"
       style="fill:#231f20;fill-opacity:1;fill-rule:nonzero;stroke:none;stroke-width:1.33333" />
    <path
       id="path146"
       d="m 729.39552,214.08554 c -1.08667,0 -1.97067,0.884 -1.97067,1.97066 0,1.08667 0.884,1.97067 1.97067,1.97067 1.08667,0 1.97067,-0.884 1.97067,-1.97067 0,-1.08666 -0.884,-1.97066 -1.97067,-1.97066"
       style="fill:#231f20;fill-opacity:1;fill-rule:nonzero;stroke:none;stroke-width:1.33333" />
    <path
       id="path147"
       d="m 725.05605,210.90887 c -1.08667,0 -1.97067,0.884 -1.97067,1.97066 0,1.08667 0.884,1.97067 1.97067,1.97067 1.08667,0 1.97067,-0.884 1.97067,-1.97067 0,-1.08666 -0.884,-1.97066 -1.97067,-1.97066"
       style="fill:#231f20;fill-opacity:1;fill-rule:nonzero;stroke:none;stroke-width:1.33333" />
    <path
       id="path148"
       d="m 733.60538,197.27274 c -1.08667,0 -1.97067,0.884 -1.97067,1.97066 0,1.08667 0.884,1.97067 1.97067,1.97067 1.08667,0 1.97067,-0.884 1.97067,-1.97067 0,-1.08666 -0.884,-1.97066 -1.97067,-1.97066"
       style="fill:#231f20;fill-opacity:1;fill-rule:nonzero;stroke:none;stroke-width:1.33333" />
    <path
       id="path149"
       d="m 729.39552,200.60421 c -1.08667,0 -1.97067,0.884 -1.97067,1.97066 0,1.08667 0.884,1.97067 1.97067,1.97067 1.08667,0 1.97067,-0.884 1.97067,-1.97067 0,-1.08666 -0.884,-1.97066 -1.97067,-1.97066"
       style="fill:#231f20;fill-opacity:1;fill-rule:nonzero;stroke:none;stroke-width:1.33333" />
    <path
       id="path150"
       d="m 725.05605,203.78087 c -1.08667,0 -1.97067,0.884 -1.97067,1.97066 0,1.08667 0.884,1.97067 1.97067,1.97067 1.08667,0 1.97067,-0.884 1.97067,-1.97067 0,-1.08666 -0.884,-1.97066 -1.97067,-1.97066"
       style="fill:#231f20;fill-opacity:1;fill-rule:nonzero;stroke:none;stroke-width:1.33333" />
    <path
       id="path151"
       d="m 721.18192,207.65527 c -1.08667,0 -1.97067,0.884 -1.97067,1.97066 0,1.084 0.884,1.968 1.97067,1.968 1.08667,0 1.97067,-0.884 1.97067,-1.968 0,-1.08666 -0.884,-1.97066 -1.97067,-1.97066"
       style="fill:#231f20;fill-opacity:1;fill-rule:nonzero;stroke:none;stroke-width:1.33333" />
    <path
       id="path152"
       d="m 649.53178,201.44607 c -1.02933,0 -1.86533,0.83733 -1.86533,1.86666 0,1.03067 0.836,1.868 1.86533,1.868 1.02933,0 1.86667,-0.83733 1.86667,-1.868 0,-1.02933 -0.83734,-1.86666 -1.86667,-1.86666"
       style="fill:#231f20;fill-opacity:1;fill-rule:nonzero;stroke:none;stroke-width:1.33333" />
    <path
       id="path153"
       d="m 653.65472,208.19807 c 1.028,0 1.86533,-0.83734 1.86533,-1.86667 0,-1.03067 -0.83733,-1.868 -1.86533,-1.868 -1.02933,0 -1.86667,0.83733 -1.86667,1.868 0,1.02933 0.83734,1.86667 1.86667,1.86667"
       style="fill:#231f20;fill-opacity:1;fill-rule:nonzero;stroke:none;stroke-width:1.33333" />
    <path
       id="path154"
       d="m 649.53178,214.25287 c -1.02933,0 -1.86533,0.83733 -1.86533,1.86666 0,1.03067 0.836,1.868 1.86533,1.868 1.02933,0 1.86667,-0.83733 1.86667,-1.868 0,-1.02933 -0.83734,-1.86666 -1.86667,-1.86666"
       style="fill:#231f20;fill-opacity:1;fill-rule:nonzero;stroke:none;stroke-width:1.33333" />
    <path
       id="path155"
       d="m 653.65472,211.23501 c -1.02933,0 -1.86667,0.83733 -1.86667,1.86666 0,1.03067 0.83734,1.868 1.86667,1.868 1.028,0 1.86533,-0.83733 1.86533,-1.868 0,-1.02933 -0.83733,-1.86666 -1.86533,-1.86666"
       style="fill:#231f20;fill-opacity:1;fill-rule:nonzero;stroke:none;stroke-width:1.33333" />
    <path
       id="path156"
       d="m 657.33458,207.55527 c -1.02933,0 -1.86667,0.83733 -1.86667,1.86666 0,1.028 0.83734,1.86534 1.86667,1.86534 1.02933,0 1.868,-0.83734 1.868,-1.86534 0,-1.02933 -0.83867,-1.86666 -1.868,-1.86666"
       style="fill:#231f20;fill-opacity:1;fill-rule:nonzero;stroke:none;stroke-width:1.33333" />
    <path
       id="path157"
       d="m 631.56712,201.44607 c -1.028,0 -1.86533,0.83733 -1.86533,1.86666 0,1.03067 0.83733,1.868 1.86533,1.868 1.02933,0 1.86667,-0.83733 1.86667,-1.868 0,-1.02933 -0.83734,-1.86666 -1.86667,-1.86666"
       style="fill:#231f20;fill-opacity:1;fill-rule:nonzero;stroke:none;stroke-width:1.33333" />
    <path
       id="path158"
       d="m 627.44618,204.49061 c -1.016,0 -1.84133,0.824 -1.84133,1.84133 0,1.01467 0.82533,1.83867 1.84133,1.83867 1.016,0 1.84133,-0.824 1.84133,-1.83867 0,-1.01733 -0.82533,-1.84133 -1.84133,-1.84133"
       style="fill:#231f20;fill-opacity:1;fill-rule:nonzero;stroke:none;stroke-width:1.33333" />
    <path
       id="path159"
       d="m 631.56712,214.25287 c -1.028,0 -1.86533,0.83733 -1.86533,1.86666 0,1.03067 0.83733,1.868 1.86533,1.868 1.02933,0 1.86667,-0.83733 1.86667,-1.868 0,-1.02933 -0.83734,-1.86666 -1.86667,-1.86666"
       style="fill:#231f20;fill-opacity:1;fill-rule:nonzero;stroke:none;stroke-width:1.33333" />
    <path
       id="path160"
       d="m 627.44618,211.26221 c -1.016,0 -1.84133,0.824 -1.84133,1.83866 0,1.01734 0.82533,1.84134 1.84133,1.84134 1.016,0 1.84133,-0.824 1.84133,-1.84134 0,-1.01466 -0.82533,-1.83866 -1.84133,-1.83866"
       style="fill:#231f20;fill-opacity:1;fill-rule:nonzero;stroke:none;stroke-width:1.33333" />
    <path
       id="path161"
       d="m 623.76632,207.58181 c -1.016,0 -1.84133,0.824 -1.84133,1.84133 0,1.01467 0.82533,1.83867 1.84133,1.83867 1.016,0 1.84133,-0.824 1.84133,-1.83867 0,-1.01733 -0.82533,-1.84133 -1.84133,-1.84133"
       style="fill:#231f20;fill-opacity:1;fill-rule:nonzero;stroke:none;stroke-width:1.33333" />
    <path
       id="path162"
       d="m 639.84138,193.36021 c -0.30133,0 -0.548,0.24666 -0.548,0.548 v 30.81466 c 0,0.30267 0.24667,0.54667 0.548,0.54667 0.30133,0 0.548,-0.244 0.548,-0.54667 v -30.81466 c 0,-0.30134 -0.24667,-0.548 -0.548,-0.548"
       style="fill:#231f20;fill-opacity:1;fill-rule:nonzero;stroke:none;stroke-width:1.33333" />
    <path
       id="path163"
       d="m 623.89778,266.07887 c -1.088,0 -1.972,0.884 -1.972,1.972 0,1.08933 0.884,1.97333 1.972,1.97333 1.088,0 1.972,-0.884 1.972,-1.97333 0,-1.088 -0.884,-1.972 -1.972,-1.972"
       style="fill:#231f20;fill-opacity:1;fill-rule:nonzero;stroke:none;stroke-width:1.33333" />
    <path
       id="path164"
       d="m 623.89778,279.60501 c -1.088,0 -1.972,0.884 -1.972,1.972 0,1.08933 0.884,1.97333 1.972,1.97333 1.088,0 1.972,-0.884 1.972,-1.97333 0,-1.088 -0.884,-1.972 -1.972,-1.972"
       style="fill:#231f20;fill-opacity:1;fill-rule:nonzero;stroke:none;stroke-width:1.33333" />
    <path
       id="path165"
       d="m 628.25138,273.20994 c 1.088,0 1.972,-0.884 1.972,-1.97067 0,-1.088 -0.884,-1.972 -1.972,-1.972 -1.088,0 -1.972,0.884 -1.972,1.972 0,1.08667 0.884,1.97067 1.972,1.97067"
       style="fill:#231f20;fill-opacity:1;fill-rule:nonzero;stroke:none;stroke-width:1.33333" />
    <path
       id="path166"
       d="m 628.25138,276.41767 c -1.088,0 -1.972,0.884 -1.972,1.972 0,1.08933 0.884,1.97333 1.972,1.97333 1.088,0 1.972,-0.884 1.972,-1.97333 0,-1.088 -0.884,-1.972 -1.972,-1.972"
       style="fill:#231f20;fill-opacity:1;fill-rule:nonzero;stroke:none;stroke-width:1.33333" />
    <path
       id="path167"
       d="m 632.13765,272.53061 c -1.088,0 -1.972,0.884 -1.972,1.972 0,1.08933 0.884,1.97333 1.972,1.97333 1.088,0 1.972,-0.884 1.972,-1.97333 0,-1.088 -0.884,-1.972 -1.972,-1.972"
       style="fill:#231f20;fill-opacity:1;fill-rule:nonzero;stroke:none;stroke-width:1.33333" />
    <path
       id="path168"
       d="m 657.22938,270.02394 c 1.08667,0 1.972,-0.884 1.972,-1.972 0,-1.08934 -0.88533,-1.97334 -1.972,-1.97334 -1.088,0 -1.972,0.884 -1.972,1.97334 0,1.088 0.884,1.972 1.972,1.972"
       style="fill:#231f20;fill-opacity:1;fill-rule:nonzero;stroke:none;stroke-width:1.33333" />
    <path
       id="path169"
       d="m 652.87592,269.26647 c -1.08667,0 -1.97067,0.884 -1.97067,1.972 0,1.08666 0.884,1.97066 1.97067,1.97066 1.088,0 1.972,-0.884 1.972,-1.97066 0,-1.088 -0.884,-1.972 -1.972,-1.972"
       style="fill:#231f20;fill-opacity:1;fill-rule:nonzero;stroke:none;stroke-width:1.33333" />
    <path
       id="path170"
       d="m 657.22938,279.60501 c -1.088,0 -1.972,0.884 -1.972,1.972 0,1.08933 0.884,1.97333 1.972,1.97333 1.08667,0 1.972,-0.884 1.972,-1.97333 0,-1.088 -0.88533,-1.972 -1.972,-1.972"
       style="fill:#231f20;fill-opacity:1;fill-rule:nonzero;stroke:none;stroke-width:1.33333" />
    <path
       id="path171"
       d="m 652.87592,276.41767 c -1.08667,0 -1.97067,0.884 -1.97067,1.972 0,1.08933 0.884,1.97333 1.97067,1.97333 1.088,0 1.972,-0.884 1.972,-1.97333 0,-1.088 -0.884,-1.972 -1.972,-1.972"
       style="fill:#231f20;fill-opacity:1;fill-rule:nonzero;stroke:none;stroke-width:1.33333" />
    <path
       id="path172"
       d="m 648.98952,272.53061 c -1.088,0 -1.972,0.884 -1.972,1.972 0,1.08933 0.884,1.97333 1.972,1.97333 1.088,0 1.972,-0.884 1.972,-1.97333 0,-1.088 -0.884,-1.972 -1.972,-1.972"
       style="fill:#231f20;fill-opacity:1;fill-rule:nonzero;stroke:none;stroke-width:1.33333" />
    <path
       id="path173"
       d="m 640.49685,257.57287 c -0.30133,0 -0.548,0.24533 -0.548,0.54666 v 32.544 c 0,0.30133 0.24667,0.54667 0.548,0.54667 0.30133,0 0.54667,-0.24534 0.54667,-0.54667 v -32.544 c 0,-0.30133 -0.24534,-0.54666 -0.54667,-0.54666"
       style="fill:#231f20;fill-opacity:1;fill-rule:nonzero;stroke:none;stroke-width:1.33333" />
    <path
       id="path174"
       d="m 58.384181,200.84327 v 79.42933 c 0,18.11333 15.405333,32.79733 34.408,32.79733 H 829.1015 c 19.00266,0 34.40533,-14.684 34.40533,-32.79733 V 57.124601 c 0,-18.113333 -15.40267,-32.795999 -34.40533,-32.795999 H 92.792181 c -19.002667,0 -34.408,14.682666 -34.408,32.795999 V 128.2766"
       style="fill:none;stroke:#231f20;stroke-width:0.809333;stroke-linecap:butt;stroke-linejoin:miter;stroke-miterlimit:4;stroke-dasharray:none;stroke-opacity:1" />
  </g>
</svg>
